<svg width="41" height="56" viewBox="0 0 41 56" fill="none" xmlns="http://www.w3.org/2000/svg">
<path d="M5.125 12.25C4.42031 12.25 3.84375 13.0375 3.84375 14V16.4172L17.6572 31.9047C19.3148 33.7641 21.6932 33.7641 23.3508 31.9047L37.1562 16.4172V14C37.1562 13.0375 36.5797 12.25 35.875 12.25H5.125ZM3.84375 23.2094V42C3.84375 42.9625 4.42031 43.75 5.125 43.75H35.875C36.5797 43.75 37.1562 42.9625 37.1562 42V23.2094L25.7852 35.9625C22.7102 39.4078 18.2818 39.4078 15.2148 35.9625L3.84375 23.2094ZM0 14C0 10.1391 2.29824 7 5.125 7H35.875C38.7018 7 41 10.1391 41 14V42C41 45.8609 38.7018 49 35.875 49H5.125C2.29824 49 0 45.8609 0 42V14Z" fill="#B18E8E"/>
</svg>
