<svg width="197" height="100" viewBox="0 0 197 100" fill="none" xmlns="http://www.w3.org/2000/svg">
<g clip-path="url(#clip0_38_315)">
<path d="M89.8718 26.5607C98.0855 26.5607 106.096 26.5317 114.14 26.5897C120.011 26.6187 124.559 29.1711 126.46 33.5509C127.052 35.0063 127.362 36.5348 127.376 38.0756C127.444 46.052 127.444 54.0283 127.376 62.0047C127.309 68.7338 121.776 73.3456 113.902 73.3456H81.6582C73.173 73.3456 67.8103 68.8209 67.8103 61.5986V37.6696C67.8103 31.6656 72.7996 27.0248 79.8254 26.6477C83.1176 26.4737 86.4099 26.5897 89.8718 26.5607ZM85.0862 54.7245C86.6135 53.9703 87.2923 52.8101 87.2923 51.3599C87.3263 47.0672 87.3602 42.7744 87.2584 38.4527C87.2244 36.1903 85.3916 34.7111 83.0158 34.7401C80.5381 34.7691 78.8071 36.3063 78.8071 38.6267C78.7732 42.7744 78.7392 46.9221 78.8071 51.0989C78.8411 54.2024 81.3866 55.7396 85.0862 54.7245ZM107.86 37.9596C107.86 37.9596 107.827 46.7771 107.827 51.1569C107.827 53.6223 109.49 55.1305 112.103 55.1015C114.717 55.0725 116.278 53.5933 116.312 51.0989C116.346 47.0092 116.346 42.8905 116.312 38.8008C116.312 36.5964 114.954 35.0881 112.782 34.7981C110.508 34.508 108.709 35.5812 107.86 37.9886M97.1691 55.3626H91.0937C91.0937 57.741 90.8561 59.9744 91.1616 62.1497C91.5349 64.8472 94.4538 66.7325 97.6103 66.7035C100.767 66.6745 103.72 64.8182 104.093 62.1497C104.399 59.9744 104.161 57.741 104.161 55.3626H97.1691Z" fill="#4DA0DC"/>
<path d="M96.3206 0.818891C99.0698 0.499837 101.004 1.25396 101.955 3.02326C102.905 4.73455 102.43 6.35883 100.631 8.01211C100.177 8.47867 99.9152 9.05937 99.8844 9.66539C99.8165 12.0728 99.9183 14.5092 99.8165 16.9166C99.7825 18.1348 100.258 18.4829 101.649 18.4829C104.942 18.4829 107.012 19.7881 107.86 22.1085C108.234 23.1237 108.064 23.6458 106.605 23.6167C100.597 23.5877 94.6235 23.5587 88.616 23.5877C87.0547 23.5877 86.919 23.0366 87.3941 21.9635C87.7725 20.9683 88.4996 20.0965 89.477 19.4661C90.4544 18.8358 91.6349 18.4773 92.8586 18.4394C93.6393 18.4104 94.4199 18.3814 95.3702 18.3233C95.3702 15.1328 95.4042 12.0293 95.3363 8.95477C95.2642 8.5875 95.0342 8.25649 94.6914 8.02661C91.6707 5.45968 92.319 2.35615 96.3206 0.818891Z" fill="#4DA0DC"/>
<path d="M132.298 41.0197C135.149 41.8319 136.54 43.5432 136.642 45.9216C136.778 48.532 136.744 51.1425 136.642 53.7529C136.507 56.6534 133.859 58.8287 130.601 58.6547V55.2756C130.601 50.8959 130.635 46.4872 130.567 42.1074C130.567 41.0197 131.012 40.6717 132.298 41.0197Z" fill="#4DA0DC"/>
<path d="M114.479 99.4355C112.375 99.4935 112.069 99.2615 112.035 97.5502C112.035 94.4467 112.001 91.3722 112.069 88.2686C112.069 87.6885 112.408 87.0794 112.714 86.4413C112.816 86.3833 112.782 86.4123 112.782 86.4123C113.15 86.2661 113.537 86.1589 113.936 86.0933C116.889 88.9647 119.434 91.8652 122.116 94.8818V88.0946C122.217 87.8626 122.285 87.6015 122.523 86.9924C122.659 86.6444 122.625 86.6734 122.625 86.6734C123.235 86.4175 123.887 86.2415 124.559 86.1513C124.797 89.3128 125 92.3293 125 95.3748C125 96.7091 124.593 98.0143 124.39 99.3485C123.134 99.6096 122.251 99.2325 121.539 98.3043C119.808 96.158 118.009 94.0696 116.108 91.8072C115.735 91.3722 115.497 91.0821 115.226 90.7921C114.988 90.8501 114.75 90.8791 114.513 90.9371C114.479 93.7506 114.479 96.593 114.479 99.4355Z" fill="#4DA0DC"/>
<path d="M58.5446 48.1259C58.5242 47.2161 58.5582 46.3061 58.6464 45.3994C58.7679 44.3575 59.2689 43.3745 60.0787 42.5888C60.8886 41.803 61.9664 41.2542 63.1605 41.0197C63.9751 40.8456 64.62 40.8166 64.62 41.8028C64.586 47.2557 64.586 52.6796 64.586 58.1325C64.5613 58.313 64.5041 58.4891 64.4163 58.6546C61.3956 58.7706 58.8161 56.7693 58.6124 54.0428C58.4767 52.1285 58.5446 50.1852 58.5446 48.1259Z" fill="#4DA0DC"/>
<path d="M177.032 99.3631C176.285 99.073 175.471 98.841 174.86 98.4349C173.706 97.6808 172.687 96.8107 171.398 95.9985C170.142 95.6505 169.768 96.0855 169.633 96.9267C169.497 97.7678 169.259 98.609 169.09 99.4211C167.596 99.6241 166.985 98.957 166.985 97.7968C166.951 94.5193 166.985 91.2707 166.985 87.9932C166.985 86.804 167.698 86.1659 169.022 86.1369C170.823 86.0966 172.626 86.1548 174.418 86.3109C178.865 88.3412 179.611 92.2279 176.319 94.7513C175.369 95.4764 176.014 96.1435 176.591 96.7526C177.371 97.5648 177.88 98.3769 177.032 99.3631ZM170.888 88.6023C170.719 88.6023 170.515 88.5153 170.413 88.5733C169.361 89.0663 169.225 93.04 170.278 93.5331C170.515 93.6491 170.922 93.5331 171.533 93.5621C172.721 93.2721 174.181 93.2721 174.995 92.634C175.606 92.1699 175.674 90.8356 175.437 90.0235C175.029 88.6603 173.468 88.6603 172.144 88.6023C172.144 88.6023 172.178 88.6023 171.907 88.6603C171.566 88.6583 171.225 88.634 170.888 88.5878V88.6023Z" fill="#4DA0DC"/>
<path d="M30.2718 98.5943C28.3372 100.277 23.4158 99.4644 21.3793 97.9852C18.698 96.0418 17.7137 92.8223 19.0714 90.1539C20.1235 88.1235 21.9903 86.9053 24.5358 86.1222C24.9243 86.019 25.3214 85.9414 25.7238 85.8901C26.3686 85.9481 26.9796 85.9772 27.9978 86.1222C28.9142 86.4992 29.4233 86.7893 29.9664 87.0503C33.7677 88.9066 35.1253 92.4742 33.021 95.7518C32.3761 96.825 31.2222 97.6661 30.2718 98.5943ZM25.8256 88.4716C23.0424 88.4716 20.972 90.3859 21.0399 92.8803C21.1078 95.2877 23.1782 97.115 26.0292 96.97C29.3554 97.086 31.4258 95.4327 31.4258 92.6773C31.4258 90.0813 29.2197 88.3556 25.8256 88.4716Z" fill="#4DA0DC"/>
<path d="M47.0045 99.3195C45.3754 99.3485 43.7462 99.4065 42.1171 99.4065C40.8612 99.4065 40.2503 98.7974 40.2164 97.7822C40.1824 94.4467 40.1824 91.1401 40.2164 87.8045C40.2164 86.7604 40.9291 86.1803 42.0831 86.1223C43.7707 86.0715 45.4605 86.12 47.1403 86.2673C47.4395 86.4388 47.7578 86.5845 48.0906 86.7024C52.8763 88.4717 54.4376 93.1124 51.1793 96.593C50.0931 97.7242 48.3961 98.4203 47.0045 99.3195ZM44.6626 96.9701C46.6991 97.1441 48.3622 96.622 49.4822 95.1138C50.6023 93.6055 50.5683 92.0103 49.5501 90.444C48.3622 88.6457 46.3936 88.4717 44.0517 88.5587C42.7959 88.3846 42.8298 89.2258 42.7959 89.8349C42.728 91.8652 42.7959 93.8666 42.7959 95.8969C42.7959 96.8251 43.2371 97.2892 44.6626 96.9701Z" fill="#4DA0DC"/>
<path d="M68.6487 99.54C65.7603 99.54 62.8787 99.54 59.8241 99.453C59.6883 99.366 59.6883 99.453 59.6883 99.453C59.5831 99.395 59.4473 99.3341 59.2063 99.189C59.0672 99.0991 59.1011 99.131 59.1011 99.131C58.9993 98.9541 58.8975 98.7481 58.6565 98.3073C58.5173 98.0433 58.4834 97.9853 58.4834 97.9853H58.5173C58.5513 96.0449 58.5886 94.1074 58.6565 92.0219V91.8363L58.9959 87.8046V87.6886C59.1594 87.2966 59.3639 86.918 59.6068 86.5574C59.6807 86.4739 59.7487 86.3868 59.8105 86.2964L59.8444 86.3254C60.5232 86.2383 61.2021 86.1513 62.1524 86.0933H65.4107C66.2931 86.0611 67.177 86.0707 68.0581 86.1223C69.4836 86.8475 69.3139 87.6596 68.7709 88.5007C68.703 88.5297 68.6351 88.5587 68.4654 88.6168C68.3636 88.6458 68.3636 88.7038 68.3636 88.7038H67.6848C66.7242 88.6719 65.9334 88.6719 65.1765 88.6719C64.5588 88.7038 63.9377 88.7328 63.0111 88.7328C60.4316 88.5268 61.4634 90.0235 61.3616 90.8182C61.2564 91.816 62.0132 91.903 63.079 91.758C64.191 91.6308 65.3208 91.68 66.412 91.903C66.826 91.9929 67.4302 92.6977 67.3759 93.0632C67.2741 93.5331 66.6971 94.003 66.1744 94.2698C65.7942 94.4728 65.1765 94.3278 64.6946 94.3568C64.2839 94.3278 63.8698 94.3278 63.079 94.2698C62.4273 94.2089 61.9454 94.1219 61.9454 94.1509C61.7383 95.0036 61.4634 95.8535 61.4973 96.7062C61.4973 96.9121 62.5631 97.1181 63.1944 97.2631C63.5256 97.2979 63.8612 97.2882 64.1888 97.2341C65.0136 97.2631 65.8384 97.295 66.9381 97.353C67.0304 97.3566 67.1223 97.3663 67.213 97.382C67.5826 97.3463 67.9569 97.376 68.3127 97.469C68.5405 98.142 68.6537 98.8395 68.6487 99.54Z" fill="#4DA0DC"/>
<path d="M184.94 86.4994C185.347 86.3834 185.789 86.2964 186.807 86.0644C188.636 85.9526 190.472 85.9236 192.305 85.9773C194.613 86.0354 195.02 86.5574 194.274 88.5008C193.96 88.5564 193.643 88.5952 193.323 88.6168C192 88.5878 190.981 88.5878 189.929 88.5878C189.57 88.632 189.205 88.6417 188.843 88.6168C186.332 88.4138 187.248 89.864 187.18 90.6761C187.078 91.6333 187.791 91.8653 188.877 91.6333C189.59 91.4976 190.321 91.4488 191.049 91.4883C192.984 91.5753 193.561 92.4744 192.645 93.9537C191.558 93.9827 190.472 94.0117 189.081 94.0407C188.3 94.0697 187.486 94.0987 187.486 94.2147C187.344 95.0505 187.321 95.8978 187.418 96.7382C187.452 96.9122 188.232 97.0862 188.674 97.0862C189.895 97.1152 191.117 96.9992 192.373 96.9992C194.579 96.9992 195.02 97.5503 194.409 99.4066C191.796 99.4356 189.183 99.4936 186.569 99.4646C186.026 99.4646 185.483 99.0876 184.906 98.7975L184.872 98.7395C184.779 98.6626 184.699 98.5747 184.635 98.4785C184.601 98.3915 184.567 98.4495 184.567 98.4495V87.3986C184.601 87.2826 184.601 87.3116 184.601 87.3116C184.635 87.1956 184.702 87.1085 184.804 86.8765C184.872 86.7315 184.906 86.6445 184.906 86.6445L184.94 86.4994Z" fill="#4DA0DC"/>
<path d="M95.6722 87.2884C95.7211 87.099 95.7892 86.9136 95.8758 86.7344L95.9437 86.6154C96.1721 86.4761 96.4114 86.3501 96.6598 86.2384C96.7774 86.1981 96.891 86.1496 96.9992 86.0934H97.0875C99.1477 86.0354 101.204 85.9773 103.536 85.8613C105.729 86.0644 106.034 86.5545 105.461 88.3703C105.003 88.4349 104.54 88.4736 104.076 88.4863C102.793 88.4573 101.778 88.4573 100.767 88.4283C100.455 88.4726 100.139 88.492 99.8231 88.4863C97.4473 88.4573 98.3026 89.8147 98.3026 90.621C98.3026 91.6014 99.0798 91.6304 100.091 91.4303C101.12 91.2561 102.183 91.2848 103.197 91.5144C103.669 91.6304 104.246 92.4686 104.178 92.9008C104.11 93.333 103.299 93.8232 102.725 93.9102C101.812 94.0552 100.835 93.8522 99.8876 93.8232C99.4498 93.8232 98.608 93.8522 98.5741 93.9972C98.3994 94.7757 98.3424 95.5702 98.4044 96.3611C98.4383 96.5351 99.2461 96.6512 99.7213 96.7962C100.699 96.7962 101.646 96.8252 102.827 96.8252H102.885C103.658 96.8088 104.432 96.8613 105.193 96.9818C105.431 97.7592 105.553 98.5594 105.556 99.3631C105.485 99.3943 105.41 99.4158 105.332 99.4269H105.583C102.963 99.4269 100.383 99.4878 97.7765 99.4269C97.1588 99.4269 96.5037 99.1775 95.7774 98.9599C95.6688 98.8671 95.7027 98.928 95.7027 98.928C95.5941 98.7424 95.4855 98.5249 95.2683 98.0579C95.2295 97.9315 95.1807 97.8074 95.1223 97.6866H95.5024C95.5364 94.2757 95.5703 90.8647 95.6382 87.3377L95.6722 87.2884Z" fill="#4DA0DC"/>
<path d="M155.989 96.8252C157.855 96.4192 158.67 95.578 158.704 93.8667C158.738 91.8944 158.704 89.9221 158.704 87.9497C158.704 87.0216 158.84 86.1804 160.469 86.0934C161.62 89.3683 161.691 92.8512 160.672 96.1581C160.436 96.7001 160.038 97.18 159.518 97.5504C158.617 98.1912 157.676 98.7915 156.701 99.3487C156.023 99.3777 155.31 99.4067 154.427 99.4067C154.224 99.3777 154.325 99.3777 154.325 99.3777C150.965 98.9716 148.691 97.0863 148.488 94.2438C148.324 92.0226 148.312 89.795 148.454 87.5727C148.488 87.0216 149.336 86.5285 150.049 86.0354C150.524 86.8185 150.965 87.5727 150.999 88.3558C151.101 90.2121 150.965 92.0974 151.101 93.9537C151.237 96.0711 152.527 97.0573 154.631 96.9122C154.936 96.9122 155.208 96.9123 155.683 96.8832C155.788 96.8762 155.885 96.8346 155.955 96.7672L155.989 96.8252Z" fill="#4DA0DC"/>
<path d="M83.1175 94.4757C84.2715 92.1263 85.3915 89.7479 86.6473 87.4565C86.9528 86.9054 87.7674 86.5284 88.548 86.1223C88.8195 86.9345 89.1589 87.8046 88.8535 88.4717C87.1564 92.1263 85.2897 95.7229 83.4908 99.3486C83.2193 99.3776 82.9478 99.4066 82.4726 99.4356H82.3708C81.8277 99.0585 81.0471 98.7685 80.8095 98.2754C79.1124 94.8818 77.4833 91.4302 75.8881 88.0076C75.379 86.9345 75.7184 86.2383 77.3815 86.1223C79.1803 89.2258 80.7755 92.3004 82.5405 95.6939C82.8459 95.0268 82.9817 94.7658 83.1175 94.4757Z" fill="#4DA0DC"/>
<path d="M4.57847 86.7314C4.88394 86.6153 5.22335 86.4993 6.00398 86.2383C8.04043 86.3253 9.63565 86.4123 11.129 86.8184C12.4188 87.1664 12.9279 88.0656 12.1133 89.1968C11.758 89.1995 11.404 89.1605 11.0612 89.0808C10.7218 88.9937 10.7557 89.0228 10.7557 89.0228C9.87324 88.8487 8.95684 88.6457 7.80285 88.4717C4.54453 88.5007 2.6099 90.183 2.64384 92.7644C2.64384 95.2588 4.68029 96.9991 7.5992 97.0571C8.24408 96.9991 8.92289 96.9411 9.73747 96.8541C9.87324 96.8251 9.80536 96.8541 9.80536 96.8541C10.4264 96.6069 11.0744 96.4126 11.74 96.274C12.8261 97.3182 12.5206 98.0723 11.2988 98.6524C10.9923 98.841 10.7082 99.0548 10.4502 99.2905C5.86822 99.9286 2.16867 98.4494 0.641334 95.3168C-0.953884 92.0393 0.47163 88.7037 4.44271 86.7024C4.61241 86.7314 4.57847 86.7314 4.57847 86.7314Z" fill="#4DA0DC"/>
<path d="M141.156 88.5587C140.797 88.6021 140.432 88.6118 140.07 88.5877C138.475 88.3266 138.373 89.0518 138.373 89.8349C138.339 92.1553 138.407 94.4467 138.339 96.7671C138.305 97.6372 137.898 98.5074 137.694 99.4065C136.099 99.6676 135.726 98.8264 135.692 97.7532C135.658 95.3458 135.59 92.9384 135.726 90.56C135.794 89.1968 135.42 88.5877 133.655 88.6167C131.449 88.6167 130.974 87.9206 131.924 86.4703C132.026 86.4413 131.992 86.4703 131.992 86.4703C132.196 86.3833 132.366 86.2963 132.841 86.0933C132.971 86.0338 133.107 85.9853 133.248 85.9482L133.282 86.0063C133.723 86.0353 134.198 86.0643 134.945 86.0933H135.183C137.355 86.0933 139.527 86.0933 141.937 86.1803C142.616 87.2825 142.853 88.1816 141.156 88.5587Z" fill="#4DA0DC"/>
<path d="M156.769 99.3775C157.652 98.7684 158.636 98.2173 159.518 97.5502C160.038 97.1798 160.436 96.6999 160.672 96.158C161.657 92.8656 161.657 89.4146 160.672 86.1223C160.537 86.1223 160.435 86.1513 160.367 86.1513C160.435 86.0933 160.503 86.0353 160.571 86.0353C161.996 85.8902 162.709 86.3833 162.675 87.6595C162.641 89.7479 162.743 91.8072 162.675 93.8956C162.539 96.8541 160.231 99.0004 156.769 99.3775Z" fill="#B2AD99"/>
<path d="M47.1064 99.3629C48.3962 98.4638 50.0932 97.7676 51.1793 96.6365C54.4377 93.1559 52.8764 88.5151 48.0907 86.7458C47.8126 86.6415 47.5407 86.5253 47.2761 86.3977C49.0277 86.4971 50.6803 87.127 51.937 88.1744C53.1937 89.2218 53.9721 90.6178 54.1322 92.1117C54.3035 93.6357 53.8624 95.1641 52.8815 96.4452C51.9006 97.7264 50.4383 98.6838 48.7356 99.1599C48.2265 99.2324 47.7174 99.2614 47.1064 99.3629Z" fill="#B2AD99"/>
<path d="M176.998 99.3776C177.914 98.3624 177.371 97.5503 176.624 96.7671C176.047 96.158 175.402 95.4909 176.353 94.7658C179.645 92.2424 178.898 88.3557 174.554 86.3834C176.794 86.3544 178.287 87.4566 179.17 89.1388C180.052 90.8211 179.984 92.7064 178.355 93.9827C176.828 95.2009 177.032 96.013 178.254 97.1732C178.461 97.4052 178.603 97.6753 178.668 97.9622C178.733 98.2492 178.719 98.545 178.627 98.8265C178.491 99.1455 177.541 99.2035 176.998 99.3776Z" fill="#B2AD99"/>
<path d="M30.3397 98.6233C31.2221 97.6662 32.3761 96.825 33.0549 95.7808C35.1253 92.5033 33.8016 88.9067 30.0003 87.0794C29.4572 86.8183 28.9481 86.5283 28.3711 86.2092C34.141 87.0214 37.1618 91.6912 34.3786 95.8679C33.5301 97.0426 31.7312 97.6952 30.3397 98.6233Z" fill="#B2AD99"/>
<path d="M83.5928 99.3777C85.3238 95.7231 87.1566 92.1265 88.8536 88.4719C89.1591 87.8048 88.8197 86.9346 88.7178 86.1515C88.6294 86.1307 88.538 86.1209 88.4463 86.1225C88.4837 86.0919 88.531 86.0717 88.5821 86.0645C90.2791 85.9484 90.9919 86.6155 90.3809 87.9498C88.7857 91.4304 87.1226 94.882 85.3916 98.3335C85.1541 98.8266 84.2716 99.0732 83.5928 99.3777Z" fill="#B2AD99"/>
<path d="M154.529 96.912C152.493 97.115 151.203 96.1289 151.067 94.0115C150.931 92.1552 151.101 90.2699 150.965 88.4136C150.931 87.6304 150.49 86.8763 150.185 86.1222C150.093 86.1133 150 86.1233 149.913 86.1512C149.947 86.1222 150.015 86.0932 150.049 86.0642C151.746 85.8901 152.289 86.2962 152.289 87.8045C152.323 89.7188 152.323 91.6331 152.289 93.5474C152.289 95.0267 152.866 96.1869 154.529 96.912Z" fill="#B2AD99"/>
<path d="M124.627 99.3774C124.729 98.0432 125.136 96.709 125.136 95.4038C125.136 92.3872 124.933 89.3707 124.797 86.2092C126.019 85.9772 126.392 86.6443 126.392 87.4854C126.426 90.908 126.426 94.3016 126.392 97.7241C126.358 98.6523 125.951 99.3629 124.627 99.3774Z" fill="#B2AD99"/>
<path d="M137.593 99.3774C137.898 98.5073 138.272 97.6371 138.306 96.767C138.407 94.4756 138.339 92.1552 138.339 89.8348C138.339 89.0517 138.475 88.3266 139.867 88.5586C139.833 89.1387 139.561 89.6898 139.561 90.2119C139.527 92.7643 139.527 95.3167 139.527 97.8692C139.527 99.0294 138.984 99.6095 137.593 99.4354C137.525 99.4354 137.491 99.4064 137.423 99.4064C137.46 99.3774 137.491 99.3774 137.593 99.3774Z" fill="#B2AD99"/>
<path d="M122.116 87.9786C122.218 90.27 122.218 92.4163 122.218 94.8818C119.536 91.8362 116.991 88.9357 114.445 86.0353L114.241 85.9482C114.275 85.9772 114.309 86.0063 114.343 86.0063C115.599 85.8322 116.312 86.4413 116.957 87.2245C118.314 88.8777 119.672 90.502 121.064 92.1553C121.399 92.5973 121.885 92.9414 122.455 93.1415V87.6595C122.455 87.6305 122.218 87.6015 122.082 87.5725C122.045 87.7077 122.056 87.8493 122.116 87.9786Z" fill="#B2AD99"/>
<path d="M99.7148 96.883C99.3075 96.825 98.459 96.709 98.459 96.535C98.363 95.7396 98.4203 94.9361 98.6287 94.1565C98.6626 94.0405 99.4772 93.9825 99.9524 93.9825C100.903 93.9825 101.887 94.1856 102.803 94.0695C103.38 93.9825 104.195 93.4604 104.263 93.0544C104.331 92.6483 103.754 91.7782 103.279 91.6621C102.259 91.4307 101.191 91.401 100.156 91.5751C99.1378 91.7491 98.3572 91.7201 98.3572 90.763C98.3572 89.9218 97.5087 88.5586 99.7148 88.5876C99.7148 89.2257 99.579 89.8348 99.5112 90.4439C99.4093 91.2271 99.8845 91.5751 100.801 91.5461C101.921 91.5171 103.075 91.4011 104.161 91.6041C104.772 91.7201 105.213 92.3582 105.756 92.7643C105.213 93.1414 104.772 93.6925 104.161 93.8955C103.55 94.0985 102.837 93.9535 102.159 93.9535C99.2396 93.9535 98.9002 94.3596 99.7148 96.883Z" fill="#B2AD99"/>
<path d="M7.56545 96.9991C4.71443 96.9991 2.71192 95.2588 2.67798 92.7644C2.67798 90.183 4.57866 88.5007 7.70122 88.4717C5.529 89.1388 4.10349 90.386 4.00167 92.5324C3.89985 94.6787 5.12172 96.1725 7.56545 96.9991Z" fill="#B2AD99"/>
<path d="M83.0497 94.3597C82.9402 94.8234 82.7575 95.2723 82.5066 95.6939C80.7417 92.2714 79.1465 89.2259 77.5173 86.1513C78.6374 85.9193 79.0447 86.1513 79.6217 87.3405C80.779 89.6319 81.8618 91.9523 83.0497 94.3597Z" fill="#B2AD99"/>
<path d="M114.72 99.4354C114.584 96.593 114.584 93.7505 114.584 90.937C114.822 90.879 115.059 90.85 115.297 90.792C115.569 91.082 115.806 91.3721 116.078 91.6911C116.078 93.7505 116.146 95.7808 115.976 97.8112C115.938 98.3913 115.26 98.9134 114.72 99.4354Z" fill="#B2AD99"/>
<path d="M194.546 99.3629C195.055 97.4776 194.613 96.9265 192.407 96.9265C191.185 96.9265 189.93 97.0425 188.708 97.0135C188.266 97.0135 187.452 96.8105 187.452 96.6655C187.356 95.8251 187.379 94.9778 187.52 94.142C187.554 94.026 188.334 94.026 188.877 93.968C188.843 94.8382 188.538 95.7373 188.708 96.5205C188.776 96.7815 190.031 96.9555 190.744 97.0135C191.932 97.1005 193.154 96.8975 194.274 97.0425C194.953 97.1296 195.937 97.5936 196.141 98.0867C196.48 98.9134 195.666 99.3774 194.546 99.3629Z" fill="#B2AD99"/>
<path d="M192.746 93.9826C193.663 92.4743 193.12 91.5752 191.151 91.4882C190.423 91.4498 189.691 91.4986 188.979 91.6332C187.927 91.8652 187.214 91.6622 187.282 90.676C187.35 89.8639 186.433 88.4136 188.741 88.6167C187.791 90.8791 188.3 91.6042 190.913 91.6042H192.61C193.663 91.6042 194.647 91.7492 194.647 92.8514C194.681 93.8956 193.697 94.0116 192.746 93.9826Z" fill="#B2AD99"/>
<path d="M64.8913 94.0697C65.4683 94.0697 66.0792 94.1857 66.4526 94.0117C66.9617 93.7506 67.5387 93.2575 67.6405 92.8225C67.7084 92.5034 67.1314 91.7783 66.6902 91.6913C65.6126 91.4697 64.4964 91.4206 63.3979 91.5462C62.3457 91.6913 61.599 91.6043 61.7009 90.6181C61.8027 89.835 60.7845 88.3557 63.1264 88.5587C62.1421 90.8211 62.6512 91.5172 65.3325 91.5172C66.1132 91.5172 66.9617 91.3722 67.6745 91.5752C68.2514 91.7493 68.6248 92.3584 69.066 92.7644C68.5909 93.1415 68.1496 93.7216 67.5726 93.8666C66.7581 94.0987 65.7738 94.0117 64.8913 94.0697Z" fill="#B2AD99"/>
<path d="M12.0795 89.2837C12.928 88.0655 12.4189 87.1664 11.1292 86.8183C9.63577 86.4122 8.04055 86.3252 6.47927 86.0932C6.42082 86.0951 6.36266 86.0852 6.30957 86.0642C6.34351 86.1222 6.37745 86.2382 6.41139 86.2382C8.65148 85.8031 10.8237 85.9192 12.7923 86.9343C13.3353 87.2244 13.539 87.9495 13.9123 88.5006C13.3353 88.7616 12.7244 89.0227 12.1474 89.2837C12.1134 89.3127 12.0456 89.2837 11.9777 89.2837C11.9098 89.2837 11.8759 89.3127 11.8419 89.3127C11.9225 89.3302 12.0079 89.3197 12.0795 89.2837Z" fill="#B2AD99"/>
<path d="M194.511 88.5299C195.122 86.5575 194.715 86.0355 192.407 85.9775C190.778 85.9484 189.149 85.9484 187.554 85.9484L187.044 85.7744C187.011 85.8904 187.011 85.9775 186.977 86.0935H191.626C192.509 86.0935 193.459 85.9775 194.308 86.1515C195.021 86.2965 195.937 86.7606 196.141 87.2247C196.48 88.0948 195.564 88.4719 194.511 88.5299Z" fill="#B2AD99"/>
<path d="M169.056 99.4646C169.294 98.5364 169.531 97.7243 169.667 96.8832C169.803 96.042 170.176 95.6069 171.228 95.955C171.16 96.5641 170.991 97.1732 170.991 97.8113C170.957 98.9135 170.515 99.5806 169.056 99.4356H168.886C168.886 99.4646 168.92 99.4936 169.056 99.4646Z" fill="#B2AD99"/>
<path d="M10.6201 99.363C10.8012 99.1009 11.0439 98.8738 11.3329 98.6959C12.5208 98.1158 12.8602 97.3617 12.0456 96.3175C11.9759 96.3103 11.9052 96.3203 11.842 96.3465C11.8787 96.3097 11.9127 96.2709 11.9438 96.2305L13.8784 97.0136C13.539 97.5357 13.3354 98.2028 12.8602 98.5799C12.3172 98.9714 11.4686 99.0874 10.6201 99.363Z" fill="#B2AD99"/>
<path d="M141.224 88.5877C142.854 88.2106 142.616 87.2825 142.073 86.2093C143.091 86.0933 144.008 86.3543 143.838 87.3115C143.736 87.8046 142.752 88.1816 142.141 88.5297C141.937 88.6747 141.564 88.5877 141.224 88.5877Z" fill="#B2AD99"/>
<path d="M105.587 88.5007C106.096 86.6444 105.756 86.1513 103.822 85.8903C103.686 85.8903 103.55 85.8613 103.211 85.8323C104.602 86.4414 106.639 85.3682 107.182 87.1375C107.453 88.0512 106.673 88.4427 105.587 88.5007Z" fill="#B2AD99"/>
<path d="M64.5519 96.8832C64.1996 96.9723 63.8283 96.9921 63.4658 96.9412C62.8549 96.7962 61.8027 96.5932 61.8027 96.3901C61.7688 95.549 62.0403 94.7078 62.2439 93.8667C62.5187 93.9008 62.7907 93.9492 63.0585 94.0117C63.0246 94.5918 62.9228 95.0849 62.8549 95.578C62.7191 96.7092 63.364 97.1443 64.6198 96.9992C64.6537 96.9992 64.6877 96.9702 64.7216 96.9412C64.7556 96.9122 64.6877 96.8832 64.5519 96.8832Z" fill="#B2AD99"/>
<path d="M68.8998 88.5007C69.3071 87.6016 69.4768 86.7894 68.4246 86.1223C68.3295 86.0806 68.2386 86.0321 68.1531 85.9773C68.2549 86.0063 68.3228 86.0643 68.4246 86.0933C68.764 86.1223 69.1713 86.0353 69.4089 86.1803C69.8612 86.5185 70.2811 86.8871 70.6647 87.2825C70.0843 87.6886 69.5413 88.1237 68.8998 88.5007Z" fill="#B2AD99"/>
<path d="M68.9981 99.3631C68.8537 98.6436 68.763 97.9171 68.7266 97.1877C69.3375 97.4198 70.3557 97.6228 70.5254 98.0869C70.8309 98.8555 70.1521 99.3631 68.9981 99.3631Z" fill="#B2AD99"/>
<path d="M105.586 99.3632C105.465 98.6425 105.397 97.9159 105.383 97.1879C106.333 96.8978 107.046 97.1879 107.182 98.058C107.317 98.9282 106.74 99.3777 105.586 99.3632Z" fill="#B2AD99"/>
<path d="M190.133 88.5879C191.083 88.5588 192.136 88.5588 193.256 88.5588C192.339 88.5879 191.287 88.5879 190.133 88.5879Z" fill="#B2AD99"/>
<path d="M100.835 88.7037C101.785 88.6746 102.803 88.6746 103.889 88.7037H100.835Z" fill="#B2AD99"/>
<path d="M25.9951 85.9482C25.6143 86.0167 25.2289 86.0652 24.8411 86.0933H24.366V86.3253C24.943 86.2673 25.52 86.1803 26.0969 86.1223C26.1309 86.1223 26.1988 86.0643 26.2327 86.0353C26.1988 86.0353 26.1648 85.9772 25.9951 85.9482Z" fill="#B2AD99"/>
<path d="M65.5701 88.5586C66.2489 88.5295 66.9956 88.5295 67.878 88.5295C67.2026 88.5586 66.4186 88.5586 65.5701 88.5586Z" fill="#B2AD99"/>
<path d="M97.1345 86.1804C97.0991 86.1754 97.0649 86.1656 97.0331 86.1514L96.9316 86.2094C97.0331 86.2094 97.1345 86.2094 97.1345 86.1804Z" fill="#B2AD99"/>
<path d="M133.146 86.0212C133.127 86.013 133.11 86.0007 133.098 85.9853C133.086 85.97 133.079 85.9523 133.078 85.9339C133.078 85.9339 132.942 85.963 132.976 85.963C132.875 85.9339 132.739 85.9048 132.637 85.8757V86.1084C132.807 86.0648 133.01 86.0357 133.146 86.0212Z" fill="#B2AD99"/>
<path d="M103.041 97.1154C103.007 97.1154 102.973 97.0572 102.905 97.0281C102.973 97.0572 103.007 97.0572 103.041 97.1154Z" fill="#B2AD99"/>
<path d="M59.834 86.2674C59.834 86.2964 59.8002 86.2964 59.834 86.2674C59.834 86.2964 59.7664 86.3544 59.7664 86.3254C59.8426 86.3037 59.9228 86.2939 60.0031 86.2964C59.9354 86.2674 59.9016 86.2384 59.834 86.2674Z" fill="#B2AD99"/>
<path d="M156.023 96.8543C155.987 96.8493 155.953 96.8395 155.921 96.8252C155.921 96.8252 155.853 96.9125 155.887 96.9125C155.921 96.9125 156.023 96.8834 156.023 96.8543Z" fill="#B2AD99"/>
<path d="M185.076 86.3833H185.008L184.974 86.4706L185.042 86.4997C185.042 86.4997 185.11 86.3833 185.076 86.3833Z" fill="#B2AD99"/>
<path d="M95.5399 97.7244C95.574 97.7535 95.5058 97.7535 95.5399 97.7244C95.5058 97.7535 95.574 97.8117 95.574 97.7826C95.574 97.7535 95.6081 97.7826 95.6422 97.8117V97.6953C95.6081 97.6953 95.5399 97.6953 95.5399 97.7244Z" fill="#B2AD99"/>
<path d="M58.8842 97.7532C58.8665 97.7698 58.8422 97.7801 58.816 97.7823L58.8501 97.8404C58.8123 97.8935 58.789 97.9531 58.782 98.015C58.816 98.015 58.8842 98.044 58.9182 98.044C58.9238 97.9462 58.9123 97.8482 58.8842 97.7532Z" fill="#B2AD99"/>
<path d="M62.3459 86.0208C62.3459 86.0277 62.349 86.0344 62.3545 86.0393C62.36 86.0442 62.3674 86.047 62.3751 86.047C62.3751 86.04 62.3721 86.0334 62.3666 86.0284C62.3611 86.0235 62.3537 86.0208 62.3459 86.0208Z" fill="#B2AD99"/>
<path d="M65.3988 86.0192C65.369 86.0451 65.3988 86.0451 65.4285 86.0451L65.3988 86.0711C65.4285 86.0322 65.4285 85.9802 65.3988 86.0192Z" fill="#B2AD99"/>
<path d="M58.9181 87.8052C58.9862 87.8052 58.9862 87.7762 58.9862 87.7471V87.5435H58.85C58.8397 87.6347 58.8636 87.7263 58.9181 87.8052Z" fill="#B2AD99"/>
<path d="M82.4049 99.4644C82.4049 99.4353 82.269 99.4353 82.269 99.4353L82.303 99.5519C82.303 99.5519 82.4049 99.4936 82.4049 99.4644Z" fill="#B2AD99"/>
<path d="M60.004 99.2623C60.038 99.233 60.038 99.1743 60.004 99.1743C59.97 99.1743 59.9021 99.233 59.9021 99.233C59.9341 99.2474 59.9685 99.2573 60.004 99.2623Z" fill="#B2AD99"/>
<path d="M154.359 99.4354C154.325 99.4063 154.223 99.4062 154.223 99.4062C154.223 99.4062 154.291 99.4354 154.359 99.4354Z" fill="#B2AD99"/>
<path d="M135.115 86.036C135.115 86.0656 135.217 86.0656 135.217 86.0656L135.183 86.0063C135.183 86.0063 135.084 86.036 135.115 86.036Z" fill="#B2AD99"/>
<path d="M58.9518 91.8363C58.9857 91.8363 58.9857 91.7493 58.9857 91.7203C58.9857 91.6913 58.8499 91.7493 58.8499 91.7493C58.8499 91.7493 58.9178 91.8363 58.9518 91.8363Z" fill="#B2AD99"/>
<path d="M9.77148 96.8251C9.83912 96.8542 9.90675 96.8251 9.94057 96.8251C9.87294 96.8251 9.8053 96.7961 9.77148 96.8251Z" fill="#B2AD99"/>
<path d="M105.281 99.4071C105.252 99.3877 105.216 99.3772 105.179 99.3774C105.216 99.4071 105.281 99.4367 105.281 99.4071Z" fill="#B2AD99"/>
<path d="M95.6415 87.3985C95.6682 87.372 95.6909 87.3428 95.7091 87.3114C95.6753 87.2824 95.6415 87.2534 95.6077 87.2534C95.5739 87.2534 95.54 87.3114 95.54 87.3404C95.54 87.3695 95.5739 87.3695 95.6415 87.3985Z" fill="#B2AD99"/>
<path d="M184.6 98.3335C184.622 98.3085 184.634 98.2779 184.634 98.2465C184.597 98.216 184.549 98.1957 184.499 98.1885C184.465 98.1885 184.431 98.2465 184.431 98.2755C184.431 98.3045 184.499 98.3335 184.6 98.3335Z" fill="#B2AD99"/>
<path d="M95.9134 86.6732C95.9816 86.7022 95.9816 86.6443 96.0157 86.6443L95.9475 86.5574C95.9475 86.5574 95.8793 86.6443 95.9134 86.6732Z" fill="#B2AD99"/>
<path d="M112.883 86.3774C112.887 86.3809 112.891 86.3836 112.896 86.3855C112.902 86.3873 112.907 86.3883 112.913 86.3883C112.918 86.3883 112.924 86.3873 112.929 86.3855C112.934 86.3836 112.939 86.3809 112.943 86.3774L112.913 86.3254C112.913 86.3254 112.853 86.3774 112.883 86.3774Z" fill="#B2AD99"/>
<path d="M131.889 86.4062C131.893 86.4097 131.898 86.4124 131.903 86.4143C131.908 86.4162 131.914 86.4171 131.919 86.4171C131.925 86.4171 131.931 86.4162 131.936 86.4143C131.941 86.4124 131.946 86.4097 131.949 86.4062L131.919 86.3542C131.919 86.3542 131.86 86.3802 131.889 86.4062Z" fill="#B2AD99"/>
<path d="M95.9813 98.9426C96.0153 98.9135 95.9813 98.8555 95.9813 98.8555L95.8794 98.9135C95.8794 98.9135 95.9473 98.9716 95.9813 98.9426Z" fill="#B2AD99"/>
<path d="M59.359 98.9719C59.4269 98.9428 59.359 98.9137 59.359 98.8846C59.359 98.8555 59.2571 98.9137 59.2571 98.9137C59.2571 98.9137 59.325 99.0011 59.359 98.9719Z" fill="#B2AD99"/>
<path d="M184.903 98.6464C184.907 98.643 184.91 98.639 184.912 98.6345C184.914 98.6301 184.915 98.6253 184.915 98.6205C184.915 98.6156 184.914 98.6108 184.912 98.6064C184.91 98.6019 184.907 98.5979 184.903 98.5945C184.873 98.5945 184.873 98.6724 184.903 98.6464Z" fill="#B2AD99"/>
<path d="M4.54454 86.7025C4.5506 86.7091 4.55835 86.7145 4.56722 86.7182C4.57609 86.7219 4.58583 86.7238 4.5957 86.7238C4.60557 86.7238 4.61531 86.7219 4.62418 86.7182C4.63304 86.7145 4.6408 86.7091 4.64686 86.7025C4.68097 86.6734 4.64686 86.6152 4.64686 86.6152C4.64686 86.6152 4.51043 86.6734 4.54454 86.7025Z" fill="#B2AD99"/>
<path d="M122.726 86.6697C122.756 86.696 122.786 86.6697 122.786 86.6434C122.786 86.6172 122.696 86.6434 122.726 86.6697Z" fill="#B2AD99"/>
<path d="M184.6 87.2244C184.668 87.1664 184.668 87.1664 184.668 87.1374C184.6 87.1084 184.532 87.1084 184.465 87.0793C184.498 87.1374 184.498 87.1954 184.6 87.2244Z" fill="#B2AD99"/>
<path d="M68.4558 88.6457C68.4217 88.5876 68.3876 88.5876 68.3876 88.5876C68.3497 88.6406 68.3264 88.7001 68.3193 88.7618C68.3534 88.7328 68.4217 88.7328 68.4558 88.6457Z" fill="#B2AD99"/>
<path d="M10.7838 89.0463C10.8135 89.0201 10.7838 88.9939 10.754 88.9939C10.7243 88.9939 10.754 89.0725 10.7838 89.0463Z" fill="#B2AD99"/>
<path d="M171.024 88.6311C171.126 90.2264 171.16 91.7637 171.194 93.4169C170.923 93.504 170.515 93.62 170.278 93.504C169.226 93.0109 169.361 89.0662 170.414 88.5441C170.549 88.4716 170.753 88.5586 171.024 88.6311Z" fill="#B2AD99"/>
<path d="M25.9611 88.5007C23.8229 89.1678 22.4652 90.4441 22.3974 92.5324C22.3295 94.6208 23.4156 96.042 25.6896 96.9122C23.2119 97.0862 21.1076 95.2589 21.0397 92.8515C20.9719 90.3861 23.0083 88.5007 25.9611 88.5007Z" fill="#B2AD99"/>
<path d="M44.1229 88.6457C44.2587 91.4012 44.2587 94.0697 44.3265 96.8831C43.2404 97.3182 42.7992 96.8541 42.7653 95.926C42.7313 93.8956 42.6974 91.8943 42.7653 89.8639C42.7958 89.2548 42.7653 88.3847 44.1229 88.6457Z" fill="#B2AD99"/>
</g>
<defs>
<clipPath id="clip0_38_315">
<rect width="196.517" height="98.9067" fill="white" transform="translate(0 0.746338)"/>
</clipPath>
</defs>
</svg>
