<svg width="294" height="149" viewBox="0 0 294 149" fill="none" xmlns="http://www.w3.org/2000/svg">
<g clip-path="url(#clip0_24_225)">
<path d="M134.453 39.226C146.741 39.226 158.724 39.1826 170.759 39.2694C179.543 39.3128 186.347 43.1314 189.191 49.6837C190.077 51.8612 190.54 54.1478 190.562 56.453C190.663 68.386 190.663 80.3191 190.562 92.2521C190.46 102.319 182.183 109.219 170.403 109.219H122.165C109.471 109.219 101.448 102.449 101.448 91.6446V55.8455C101.448 46.8632 108.912 39.9203 119.423 39.3562C124.348 39.0959 129.274 39.2694 134.453 39.226ZM127.293 81.3605C129.578 80.2323 130.594 78.4966 130.594 76.3269C130.645 69.9048 130.695 63.4826 130.543 57.0171C130.492 53.6325 127.75 51.4194 124.196 51.4628C120.489 51.5062 117.9 53.806 117.9 57.2775C117.849 63.4826 117.798 69.6878 117.9 75.9364C117.95 80.5794 121.759 82.8792 127.293 81.3605ZM161.365 56.2794C161.365 56.2794 161.314 69.4708 161.314 76.0232C161.314 79.7116 163.802 81.968 167.712 81.9246C171.622 81.8812 173.958 79.6682 174.008 75.9364C174.059 69.818 174.059 63.6562 174.008 57.5378C174.008 54.24 171.977 51.9835 168.728 51.5496C165.325 51.1157 162.634 52.7212 161.365 56.3228M145.37 82.3151H136.281C136.281 85.8733 135.925 89.2146 136.382 92.4691C136.941 96.5046 141.308 99.3251 146.03 99.2817C150.752 99.2383 155.17 96.4612 155.729 92.4691C156.186 89.2146 155.83 85.8733 155.83 82.3151H145.37Z" fill="#4DA0DC"/>
<path d="M144.101 0.714871C148.214 0.23755 151.108 1.36576 152.53 4.01273C153.951 6.5729 153.241 9.0029 150.549 11.4763C149.871 12.1743 149.478 13.0431 149.432 13.9497C149.331 17.5513 149.483 21.1963 149.331 24.7979C149.28 26.6204 149.991 27.1411 152.073 27.1411C156.998 27.1411 160.095 29.0938 161.365 32.5652C161.923 34.084 161.67 34.865 159.486 34.8216C150.499 34.7782 141.562 34.7349 132.574 34.7782C130.238 34.7782 130.035 33.9538 130.746 32.3482C131.312 30.8594 132.4 29.5551 133.862 28.6121C135.325 27.669 137.091 27.1328 138.921 27.076C140.089 27.0326 141.257 26.9892 142.679 26.9024C142.679 22.1292 142.73 17.4862 142.628 12.8866C142.52 12.3371 142.176 11.8419 141.663 11.498C137.144 7.65772 138.114 3.01469 144.101 0.714871Z" fill="#4DA0DC"/>
<path d="M197.925 60.8574C202.19 62.0724 204.272 64.6326 204.424 68.1908C204.627 72.0962 204.576 76.0015 204.424 79.9069C204.221 84.2461 200.26 87.5006 195.386 87.2402V82.185C195.386 75.6327 195.437 69.037 195.335 62.4846C195.335 60.8574 196 60.3367 197.925 60.8574Z" fill="#4DA0DC"/>
<path d="M171.267 148.251C168.118 148.337 167.661 147.99 167.611 145.43C167.611 140.787 167.56 136.187 167.661 131.544C167.661 130.676 168.169 129.765 168.626 128.811C168.778 128.724 168.728 128.767 168.728 128.767C169.278 128.548 169.858 128.388 170.454 128.29C174.872 132.586 178.68 136.925 182.691 141.438V131.284C182.844 130.937 182.945 130.546 183.301 129.635C183.504 129.114 183.453 129.158 183.453 129.158C184.367 128.775 185.342 128.512 186.347 128.377C186.703 133.106 187.007 137.619 187.007 142.176C187.007 144.172 186.398 146.124 186.093 148.12C184.215 148.511 182.895 147.947 181.828 146.558C179.239 143.347 176.547 140.223 173.704 136.838C173.145 136.187 172.79 135.753 172.384 135.319C172.028 135.406 171.673 135.45 171.317 135.536C171.267 139.746 171.267 143.998 171.267 148.251Z" fill="#4DA0DC"/>
<path d="M87.5857 71.4886C87.5553 70.1276 87.6061 68.7662 87.738 67.4097C87.9199 65.851 88.6694 64.3803 89.8809 63.2048C91.0925 62.0294 92.705 61.2083 94.4914 60.8574C95.71 60.597 96.6748 60.5536 96.6748 62.029C96.624 70.1868 96.624 78.3013 96.624 86.4591C96.5871 86.7291 96.5014 86.9926 96.3701 87.2402C91.851 87.4138 87.9919 84.4197 87.6872 80.3407C87.4841 77.4768 87.5857 74.5695 87.5857 71.4886Z" fill="#4DA0DC"/>
<path d="M264.849 148.142C263.732 147.708 262.513 147.361 261.599 146.753C259.873 145.625 258.349 144.323 256.42 143.108C254.541 142.588 253.982 143.239 253.779 144.497C253.576 145.755 253.221 147.014 252.967 148.229C250.733 148.533 249.819 147.535 249.819 145.799C249.768 140.895 249.819 136.035 249.819 131.132C249.819 129.353 250.885 128.398 252.865 128.355C255.56 128.295 258.257 128.382 260.939 128.615C267.591 131.653 268.708 137.467 263.782 141.243C262.361 142.327 263.325 143.325 264.189 144.237C265.357 145.452 266.118 146.667 264.849 148.142ZM255.658 132.043C255.404 132.043 255.1 131.913 254.947 132C253.373 132.738 253.17 138.682 254.744 139.42C255.1 139.594 255.709 139.42 256.623 139.463C258.4 139.03 260.583 139.03 261.802 138.075C262.716 137.381 262.818 135.385 262.462 134.17C261.853 132.13 259.517 132.13 257.537 132.043C257.537 132.043 257.588 132.043 257.181 132.13C256.671 132.127 256.162 132.091 255.658 132.022V132.043Z" fill="#4DA0DC"/>
<path d="M45.2882 146.992C42.3939 149.509 35.0312 148.294 31.9846 146.081C27.9732 143.174 26.5007 138.357 28.5318 134.365C30.1059 131.327 32.8986 129.505 36.7069 128.333C37.288 128.179 37.8822 128.063 38.4841 127.986C39.4489 128.073 40.3628 128.116 41.8862 128.333C43.2571 128.897 44.0188 129.331 44.8312 129.722C50.5183 132.499 52.5494 137.836 49.4012 142.74C48.4364 144.345 46.71 145.604 45.2882 146.992ZM38.6364 131.848C34.4727 131.848 31.3753 134.712 31.4768 138.444C31.5784 142.045 34.6758 144.779 38.9411 144.562C43.9173 144.736 47.0147 142.262 47.0147 138.14C47.0147 134.256 43.7141 131.674 38.6364 131.848Z" fill="#4DA0DC"/>
<path d="M70.3213 148.077C67.884 148.12 65.4467 148.207 63.0094 148.207C61.1307 148.207 60.2167 147.296 60.1659 145.777C60.1151 140.787 60.1151 135.84 60.1659 130.85C60.1659 129.288 61.2322 128.42 62.9586 128.333C65.4834 128.257 68.0113 128.33 70.5244 128.55C70.972 128.807 71.4483 129.025 71.9462 129.201C79.1058 131.848 81.4415 138.791 76.5669 143.998C74.9421 145.69 72.4032 146.732 70.3213 148.077ZM66.8177 144.562C69.8643 144.822 72.3524 144.041 74.0281 141.785C75.7037 139.529 75.6529 137.142 74.1296 134.799C72.3524 132.108 69.4073 131.848 65.9037 131.978C64.025 131.718 64.0757 132.976 64.025 133.887C63.9234 136.925 64.025 139.919 64.025 142.957C64.025 144.345 64.6851 145.039 66.8177 144.562Z" fill="#4DA0DC"/>
<path d="M102.702 148.407C98.3808 148.407 94.0698 148.407 89.4998 148.277C89.2967 148.146 89.2967 148.277 89.2967 148.277C89.1393 148.19 88.9362 148.099 88.5757 147.882C88.3675 147.747 88.4183 147.795 88.4183 147.795C88.266 147.53 88.1136 147.222 87.7531 146.563C87.5449 146.168 87.4941 146.081 87.4941 146.081H87.5449C87.5957 143.178 87.6516 140.279 87.7531 137.159V136.882L88.2609 130.85V130.676C88.5055 130.09 88.8114 129.524 89.1749 128.984C89.2854 128.859 89.3871 128.729 89.4795 128.594L89.5303 128.637C90.5459 128.507 91.5614 128.377 92.9832 128.29H97.8578C99.1779 128.242 100.5 128.256 101.818 128.333C103.951 129.418 103.697 130.633 102.885 131.891C102.783 131.935 102.682 131.978 102.428 132.065C102.275 132.108 102.275 132.195 102.275 132.195H101.26C99.8228 132.147 98.6397 132.147 97.5074 132.147C96.5833 132.195 95.654 132.239 94.2678 132.239C90.4087 131.931 91.9524 134.17 91.8 135.359C91.6426 136.851 92.775 136.981 94.3694 136.764C96.033 136.574 97.7233 136.648 99.3557 136.981C99.9752 137.116 100.879 138.17 100.798 138.717C100.645 139.42 99.7822 140.123 99.0003 140.522C98.4315 140.826 97.5074 140.609 96.7864 140.652C96.172 140.609 95.5525 140.609 94.3694 140.522C93.3945 140.431 92.6734 140.301 92.6734 140.344C92.3637 141.62 91.9524 142.892 92.0032 144.167C92.0032 144.475 93.5976 144.783 94.542 145C95.0375 145.053 95.5396 145.038 96.0298 144.957C97.2637 145 98.4976 145.048 100.143 145.135C100.281 145.14 100.418 145.155 100.554 145.178C101.107 145.125 101.667 145.169 102.199 145.309C102.54 146.315 102.709 147.359 102.702 148.407Z" fill="#4DA0DC"/>
<path d="M276.68 128.897C277.289 128.724 277.949 128.594 279.473 128.246C282.21 128.079 284.956 128.036 287.699 128.116C291.151 128.203 291.761 128.984 290.644 131.891C290.174 131.975 289.7 132.033 289.222 132.065C287.242 132.022 285.718 132.022 284.144 132.022C283.606 132.088 283.061 132.102 282.519 132.065C278.762 131.761 280.133 133.931 280.031 135.146C279.879 136.578 280.945 136.925 282.57 136.578C283.636 136.375 284.73 136.302 285.82 136.361C288.714 136.491 289.577 137.836 288.206 140.049C286.581 140.093 284.957 140.136 282.875 140.179C281.707 140.223 280.488 140.266 280.488 140.44C280.277 141.69 280.243 142.958 280.387 144.215C280.437 144.475 281.605 144.736 282.265 144.736C284.093 144.779 285.921 144.606 287.8 144.606C291.101 144.606 291.761 145.43 290.847 148.207C286.937 148.251 283.027 148.337 279.117 148.294C278.305 148.294 277.492 147.73 276.629 147.296L276.578 147.209C276.439 147.094 276.319 146.963 276.223 146.819C276.172 146.688 276.121 146.775 276.121 146.775V130.242C276.172 130.069 276.172 130.112 276.172 130.112C276.223 129.939 276.324 129.809 276.477 129.461C276.578 129.244 276.629 129.114 276.629 129.114L276.68 128.897Z" fill="#4DA0DC"/>
<path d="M143.131 130.078C143.204 129.794 143.306 129.517 143.435 129.249L143.537 129.071C143.879 128.862 144.237 128.674 144.608 128.507C144.784 128.447 144.954 128.374 145.116 128.29H145.248C148.33 128.203 151.407 128.116 154.896 127.943C158.176 128.246 158.633 128.98 157.775 131.696C157.089 131.793 156.397 131.851 155.703 131.87C153.784 131.826 152.266 131.826 150.752 131.783C150.286 131.849 149.813 131.878 149.341 131.87C145.786 131.826 147.066 133.857 147.066 135.064C147.066 136.53 148.229 136.574 149.742 136.274C151.282 136.014 152.871 136.057 154.388 136.4C155.094 136.574 155.957 137.828 155.855 138.474C155.754 139.121 154.54 139.854 153.682 139.984C152.316 140.201 150.854 139.897 149.437 139.854C148.782 139.854 147.523 139.897 147.472 140.114C147.211 141.279 147.125 142.468 147.218 143.651C147.269 143.911 148.478 144.085 149.188 144.302C150.651 144.302 152.067 144.345 153.835 144.345H153.921C155.078 144.321 156.235 144.399 157.374 144.58C157.731 145.743 157.913 146.94 157.917 148.142C157.812 148.189 157.699 148.221 157.582 148.238H157.958C154.038 148.238 150.179 148.329 146.279 148.238C145.355 148.238 144.375 147.864 143.288 147.539C143.126 147.4 143.176 147.491 143.176 147.491C143.014 147.214 142.851 146.888 142.526 146.189C142.468 146 142.395 145.815 142.308 145.634H142.877C142.928 140.531 142.978 135.428 143.08 130.151L143.131 130.078Z" fill="#4DA0DC"/>
<path d="M233.367 144.345C236.16 143.738 237.378 142.479 237.429 139.919C237.48 136.968 237.429 134.018 237.429 131.067C237.429 129.678 237.632 128.42 240.07 128.29C241.792 133.189 241.898 138.4 240.374 143.347C240.021 144.158 239.426 144.876 238.648 145.43C237.299 146.389 235.892 147.287 234.433 148.12C233.418 148.164 232.352 148.207 231.031 148.207C230.727 148.164 230.879 148.164 230.879 148.164C225.852 147.556 222.45 144.736 222.145 140.483C221.9 137.16 221.883 133.828 222.095 130.503C222.145 129.678 223.415 128.941 224.481 128.203C225.192 129.375 225.852 130.503 225.903 131.675C226.055 134.452 225.852 137.272 226.055 140.049C226.258 143.217 228.188 144.692 231.336 144.475C231.793 144.475 232.199 144.475 232.91 144.432C233.067 144.422 233.212 144.359 233.316 144.258L233.367 144.345Z" fill="#4DA0DC"/>
<path d="M124.348 140.83C126.075 137.316 127.75 133.757 129.629 130.329C130.086 129.505 131.305 128.941 132.473 128.333C132.879 129.548 133.387 130.85 132.93 131.848C130.391 137.316 127.598 142.696 124.907 148.12C124.501 148.164 124.094 148.207 123.383 148.251H123.231C122.419 147.687 121.251 147.253 120.895 146.515C118.356 141.438 115.919 136.274 113.533 131.154C112.771 129.548 113.279 128.507 115.767 128.333C118.458 132.976 120.845 137.576 123.485 142.653C123.942 141.655 124.145 141.264 124.348 140.83Z" fill="#4DA0DC"/>
<path d="M6.84975 129.244C7.30674 129.071 7.81451 128.897 8.98239 128.507C12.029 128.637 14.4155 128.767 16.6497 129.375C18.5793 129.895 19.3409 131.241 18.1223 132.933C17.5908 132.937 17.0611 132.879 16.5482 132.759C16.0404 132.629 16.0912 132.673 16.0912 132.673C14.771 132.412 13.4 132.108 11.6736 131.848C6.79897 131.891 3.90467 134.408 3.95545 138.27C3.95545 142.002 7.00208 144.606 11.3689 144.692C12.3337 144.606 13.3492 144.519 14.5679 144.389C14.771 144.345 14.6694 144.389 14.6694 144.389C15.5985 144.019 16.568 143.728 17.5637 143.521C19.1886 145.083 18.7316 146.211 16.9036 147.079C16.4452 147.361 16.0201 147.681 15.6342 148.034C8.77928 148.988 3.24457 146.775 0.959593 142.089C-1.42694 137.185 0.705707 132.195 6.64664 129.201C6.90052 129.244 6.84975 129.244 6.84975 129.244Z" fill="#4DA0DC"/>
<path d="M211.177 131.978C210.639 132.043 210.094 132.058 209.552 132.022C207.166 131.631 207.014 132.716 207.014 133.887C206.963 137.359 207.064 140.787 206.963 144.258C206.912 145.56 206.303 146.862 205.998 148.207C203.612 148.598 203.053 147.339 203.002 145.734C202.951 142.132 202.85 138.531 203.053 134.972C203.155 132.933 202.596 132.022 199.956 132.065C196.655 132.065 195.944 131.024 197.366 128.854C197.518 128.811 197.468 128.854 197.468 128.854C197.772 128.724 198.026 128.594 198.737 128.29C198.931 128.201 199.135 128.128 199.346 128.073L199.397 128.16C200.057 128.203 200.768 128.246 201.885 128.29H202.241C205.49 128.29 208.74 128.29 212.345 128.42C213.361 130.069 213.716 131.414 211.177 131.978Z" fill="#4DA0DC"/>
<path d="M234.535 148.164C235.855 147.252 237.328 146.428 238.648 145.43C239.426 144.876 240.021 144.158 240.374 143.347C241.847 138.422 241.847 133.259 240.374 128.333C240.171 128.333 240.019 128.377 239.917 128.377C240.019 128.29 240.12 128.203 240.222 128.203C242.355 127.986 243.421 128.724 243.37 130.633C243.319 133.757 243.472 136.838 243.37 139.962C243.167 144.389 239.714 147.6 234.535 148.164Z" fill="#B2AD99"/>
<path d="M70.4736 148.142C72.4032 146.797 74.942 145.755 76.5669 144.063C81.4415 138.856 79.1058 131.913 71.9462 129.266C71.53 129.11 71.1233 128.936 70.7275 128.745C73.3479 128.894 75.8203 129.837 77.7004 131.403C79.5805 132.97 80.745 135.059 80.9845 137.294C81.2409 139.574 80.5809 141.86 79.1134 143.777C77.6459 145.694 75.4583 147.126 72.9109 147.838C72.1493 147.947 71.3876 147.99 70.4736 148.142Z" fill="#B2AD99"/>
<path d="M264.798 148.164C266.169 146.645 265.356 145.43 264.239 144.258C263.376 143.347 262.411 142.349 263.833 141.264C268.758 137.489 267.641 131.674 261.142 128.724C264.493 128.68 266.727 130.329 268.048 132.846C269.368 135.363 269.266 138.183 266.829 140.093C264.544 141.915 264.849 143.13 266.677 144.866C266.988 145.213 267.2 145.617 267.297 146.046C267.394 146.476 267.373 146.918 267.235 147.339C267.032 147.817 265.61 147.903 264.798 148.164Z" fill="#B2AD99"/>
<path d="M45.3898 147.036C46.71 145.604 48.4364 144.345 49.452 142.783C52.5494 137.88 50.5691 132.499 44.882 129.765C44.0696 129.375 43.3079 128.941 42.4447 128.463C51.0768 129.678 55.596 136.665 51.4323 142.913C50.1628 144.671 47.4716 145.647 45.3898 147.036Z" fill="#B2AD99"/>
<path d="M125.059 148.164C127.649 142.696 130.391 137.316 132.93 131.848C133.387 130.85 132.879 129.548 132.726 128.377C132.594 128.346 132.457 128.331 132.32 128.333C132.376 128.288 132.447 128.257 132.523 128.246C135.062 128.073 136.129 129.071 135.215 131.067C132.828 136.274 130.34 141.438 127.75 146.602C127.395 147.339 126.075 147.708 125.059 148.164Z" fill="#B2AD99"/>
<path d="M231.184 144.475C228.137 144.779 226.207 143.304 226.004 140.136C225.801 137.359 226.055 134.538 225.852 131.761C225.801 130.59 225.141 129.461 224.684 128.333C224.547 128.32 224.407 128.335 224.278 128.377C224.329 128.333 224.43 128.29 224.481 128.246C227.02 127.986 227.832 128.594 227.832 130.85C227.883 133.714 227.883 136.578 227.832 139.442C227.832 141.655 228.695 143.391 231.184 144.475Z" fill="#B2AD99"/>
<path d="M186.449 148.164C186.601 146.168 187.211 144.172 187.211 142.219C187.211 137.706 186.906 133.193 186.703 128.463C188.531 128.116 189.089 129.114 189.089 130.373C189.14 135.493 189.14 140.57 189.089 145.69C189.039 147.079 188.429 148.142 186.449 148.164Z" fill="#B2AD99"/>
<path d="M205.846 148.164C206.303 146.862 206.861 145.56 206.912 144.258C207.065 140.83 206.963 137.359 206.963 133.887C206.963 132.716 207.166 131.631 209.248 131.978C209.197 132.846 208.791 133.67 208.791 134.452C208.74 138.27 208.74 142.089 208.74 145.907C208.74 147.643 207.928 148.511 205.846 148.25C205.744 148.25 205.694 148.207 205.592 148.207C205.648 148.164 205.694 148.164 205.846 148.164Z" fill="#B2AD99"/>
<path d="M182.691 131.11C182.844 134.538 182.844 137.749 182.844 141.438C178.832 136.882 175.024 132.542 171.216 128.203L170.911 128.073C170.962 128.116 171.013 128.16 171.063 128.16C172.942 127.899 174.009 128.811 174.973 129.982C177.004 132.456 179.035 134.886 181.117 137.359C181.62 138.02 182.346 138.535 183.199 138.834V130.633C183.199 130.59 182.844 130.546 182.641 130.503C182.585 130.705 182.603 130.917 182.691 131.11Z" fill="#B2AD99"/>
<path d="M149.179 144.432C148.569 144.345 147.3 144.172 147.3 143.911C147.156 142.721 147.242 141.519 147.554 140.353C147.604 140.179 148.823 140.093 149.534 140.093C150.956 140.093 152.428 140.396 153.799 140.223C154.662 140.093 155.881 139.312 155.983 138.704C156.084 138.097 155.221 136.795 154.51 136.621C152.985 136.275 151.387 136.23 149.839 136.491C148.315 136.751 147.147 136.708 147.147 135.276C147.147 134.018 145.878 131.978 149.179 132.022C149.179 132.976 148.975 133.887 148.874 134.799C148.722 135.97 149.432 136.491 150.803 136.448C152.479 136.404 154.205 136.231 155.83 136.534C156.744 136.708 157.404 137.663 158.217 138.27C157.404 138.834 156.744 139.659 155.83 139.962C154.916 140.266 153.85 140.049 152.834 140.049C148.468 140.049 147.96 140.657 149.179 144.432Z" fill="#B2AD99"/>
<path d="M11.3183 144.606C7.05298 144.606 4.05712 142.002 4.00635 138.27C4.00635 134.408 6.84987 131.891 11.5214 131.848C8.27163 132.846 6.13899 134.712 5.98666 137.923C5.83433 141.134 7.66231 143.369 11.3183 144.606Z" fill="#B2AD99"/>
<path d="M124.247 140.657C124.083 141.351 123.81 142.022 123.434 142.653C120.794 137.533 118.408 132.976 115.97 128.377C117.646 128.03 118.255 128.377 119.118 130.156C120.85 133.584 122.47 137.055 124.247 140.657Z" fill="#B2AD99"/>
<path d="M171.627 148.251C171.424 143.998 171.424 139.746 171.424 135.536C171.779 135.45 172.135 135.406 172.49 135.319C172.896 135.753 173.252 136.187 173.658 136.665C173.658 139.746 173.76 142.783 173.506 145.821C173.45 146.688 172.434 147.469 171.627 148.251Z" fill="#B2AD99"/>
<path d="M291.05 148.142C291.812 145.321 291.151 144.497 287.851 144.497C286.023 144.497 284.144 144.671 282.316 144.627C281.656 144.627 280.437 144.323 280.437 144.106C280.293 142.849 280.328 141.582 280.539 140.331C280.59 140.158 281.758 140.158 282.57 140.071C282.519 141.373 282.062 142.718 282.316 143.89C282.418 144.28 284.296 144.54 285.363 144.627C287.14 144.757 288.968 144.454 290.644 144.671C291.659 144.801 293.132 145.495 293.436 146.233C293.944 147.469 292.725 148.164 291.05 148.142Z" fill="#B2AD99"/>
<path d="M288.359 140.093C289.73 137.836 288.917 136.491 285.972 136.361C284.882 136.304 283.788 136.377 282.722 136.578C281.148 136.925 280.082 136.621 280.183 135.146C280.285 133.931 278.914 131.761 282.367 132.065C280.945 135.45 281.707 136.535 285.617 136.535H288.156C289.73 136.535 291.202 136.751 291.202 138.4C291.253 139.963 289.78 140.136 288.359 140.093Z" fill="#B2AD99"/>
<path d="M97.081 140.223C97.9442 140.223 98.8582 140.397 99.4168 140.136C100.178 139.746 101.042 139.008 101.194 138.357C101.296 137.88 100.432 136.795 99.7722 136.665C98.1602 136.333 96.4902 136.26 94.8468 136.448C93.2727 136.665 92.1556 136.535 92.308 135.059C92.4603 133.888 90.937 131.675 94.4406 131.978C92.9681 135.363 93.7297 136.404 97.7411 136.404C98.909 136.404 100.178 136.187 101.245 136.491C102.108 136.752 102.667 137.663 103.327 138.27C102.616 138.834 101.956 139.702 101.092 139.919C99.8738 140.266 98.4012 140.136 97.081 140.223Z" fill="#B2AD99"/>
<path d="M18.0716 133.063C19.341 131.241 18.5793 129.895 16.6498 129.375C14.4156 128.767 12.0291 128.637 9.69334 128.29C9.60589 128.293 9.51888 128.278 9.43945 128.246C9.49023 128.333 9.54101 128.507 9.59178 128.507C12.9431 127.856 16.1928 128.029 19.1379 129.548C19.9503 129.982 20.255 131.067 20.8135 131.891C19.9503 132.282 19.0363 132.673 18.1731 133.063C18.1224 133.106 18.0208 133.063 17.9192 133.063C17.8177 133.063 17.7669 133.106 17.7161 133.106C17.8367 133.133 17.9644 133.117 18.0716 133.063Z" fill="#B2AD99"/>
<path d="M290.999 131.935C291.913 128.984 291.304 128.203 287.851 128.116C285.414 128.073 282.976 128.073 280.59 128.073L279.828 127.813C279.777 127.986 279.777 128.116 279.727 128.29H286.683C288.003 128.29 289.425 128.116 290.694 128.377C291.761 128.594 293.132 129.288 293.436 129.982C293.944 131.284 292.573 131.848 290.999 131.935Z" fill="#B2AD99"/>
<path d="M252.916 148.294C253.272 146.905 253.627 145.69 253.83 144.432C254.033 143.174 254.592 142.523 256.166 143.043C256.064 143.955 255.811 144.866 255.811 145.82C255.76 147.469 255.1 148.467 252.916 148.25H252.662C252.662 148.294 252.713 148.337 252.916 148.294Z" fill="#B2AD99"/>
<path d="M15.8882 148.142C16.1591 147.75 16.5222 147.41 16.9545 147.144C18.7317 146.276 19.2395 145.148 18.0208 143.586C17.9165 143.575 17.8108 143.59 17.7162 143.629C17.7711 143.574 17.822 143.516 17.8685 143.456L20.7628 144.627C20.255 145.408 19.9504 146.406 19.2395 146.97C18.427 147.556 17.1576 147.73 15.8882 148.142Z" fill="#B2AD99"/>
<path d="M211.279 132.022C213.716 131.457 213.361 130.069 212.548 128.463C214.072 128.29 215.443 128.68 215.189 130.112C215.036 130.85 213.564 131.414 212.65 131.935C212.345 132.152 211.787 132.022 211.279 132.022Z" fill="#B2AD99"/>
<path d="M157.963 131.891C158.725 129.114 158.217 128.377 155.322 127.986C155.119 127.986 154.916 127.943 154.408 127.899C156.49 128.811 159.537 127.205 160.349 129.852C160.756 131.219 159.588 131.805 157.963 131.891Z" fill="#B2AD99"/>
<path d="M96.5731 144.432C96.0461 144.565 95.4906 144.595 94.9482 144.519C94.0342 144.302 92.4601 143.998 92.4601 143.694C92.4094 142.436 92.8156 141.178 93.1202 139.919C93.5313 139.97 93.9382 140.043 94.3389 140.136C94.2881 141.004 94.1358 141.742 94.0342 142.479C93.8311 144.172 94.7959 144.823 96.6747 144.606C96.7254 144.606 96.7762 144.562 96.827 144.519C96.8778 144.475 96.7762 144.432 96.5731 144.432Z" fill="#B2AD99"/>
<path d="M103.078 131.892C103.687 130.546 103.941 129.331 102.367 128.333C102.225 128.271 102.089 128.198 101.961 128.116C102.113 128.16 102.215 128.247 102.367 128.29C102.875 128.333 103.484 128.203 103.839 128.42C104.516 128.926 105.144 129.477 105.718 130.069C104.85 130.677 104.037 131.327 103.078 131.892Z" fill="#B2AD99"/>
<path d="M103.225 148.142C103.009 147.066 102.873 145.979 102.819 144.888C103.733 145.235 105.256 145.539 105.51 146.233C105.967 147.383 104.951 148.142 103.225 148.142Z" fill="#B2AD99"/>
<path d="M157.963 148.142C157.782 147.064 157.68 145.977 157.658 144.888C159.08 144.454 160.146 144.888 160.349 146.189C160.553 147.491 159.689 148.164 157.963 148.142Z" fill="#B2AD99"/>
<path d="M284.449 132.022C285.871 131.978 287.445 131.978 289.12 131.978C287.749 132.022 286.175 132.022 284.449 132.022Z" fill="#B2AD99"/>
<path d="M150.854 132.195C152.276 132.152 153.799 132.152 155.424 132.195H150.854Z" fill="#B2AD99"/>
<path d="M38.8903 128.073C38.3206 128.175 37.744 128.248 37.1639 128.29H36.453V128.637C37.3162 128.55 38.1794 128.42 39.0426 128.333C39.0934 128.333 39.195 128.246 39.2457 128.203C39.195 128.203 39.1442 128.116 38.8903 128.073Z" fill="#B2AD99"/>
<path d="M98.0964 131.978C99.112 131.935 100.229 131.935 101.549 131.935C100.539 131.978 99.3659 131.978 98.0964 131.978Z" fill="#B2AD99"/>
<path d="M145.319 128.42C145.266 128.413 145.215 128.398 145.167 128.377L145.015 128.464C145.167 128.464 145.319 128.464 145.319 128.42Z" fill="#B2AD99"/>
<path d="M199.193 128.182C199.164 128.17 199.14 128.151 199.122 128.128C199.104 128.105 199.094 128.079 199.092 128.051C199.092 128.051 198.889 128.095 198.939 128.095C198.787 128.051 198.584 128.008 198.432 127.964V128.312C198.686 128.247 198.99 128.204 199.193 128.182Z" fill="#B2AD99"/>
<path d="M154.155 144.78C154.104 144.78 154.053 144.693 153.951 144.649C154.053 144.693 154.104 144.693 154.155 144.78Z" fill="#B2AD99"/>
<path d="M89.515 128.55C89.515 128.594 89.4643 128.594 89.515 128.55C89.515 128.594 89.4136 128.681 89.4136 128.637C89.528 128.605 89.6482 128.59 89.7687 128.594C89.6672 128.55 89.6165 128.507 89.515 128.55Z" fill="#B2AD99"/>
<path d="M233.419 144.389C233.365 144.381 233.314 144.367 233.266 144.345C233.266 144.345 233.164 144.476 233.215 144.476C233.266 144.476 233.419 144.432 233.419 144.389Z" fill="#B2AD99"/>
<path d="M276.884 128.724H276.782L276.73 128.855L276.833 128.898C276.833 128.898 276.935 128.724 276.884 128.724Z" fill="#B2AD99"/>
<path d="M142.933 145.691C142.984 145.734 142.882 145.734 142.933 145.691C142.882 145.734 142.984 145.822 142.984 145.778C142.984 145.734 143.035 145.778 143.086 145.822V145.647C143.035 145.647 142.933 145.647 142.933 145.691Z" fill="#B2AD99"/>
<path d="M88.0944 145.734C88.0679 145.759 88.0314 145.774 87.9921 145.777L88.0432 145.864C87.9865 145.943 87.9515 146.032 87.9409 146.125C87.9921 146.125 88.0944 146.168 88.1456 146.168C88.1539 146.022 88.1367 145.876 88.0944 145.734Z" fill="#B2AD99"/>
<path d="M93.2727 128.181C93.2727 128.192 93.2775 128.203 93.2862 128.211C93.2948 128.218 93.3065 128.223 93.3187 128.223C93.3187 128.212 93.3138 128.201 93.3052 128.193C93.2966 128.186 93.2849 128.181 93.2727 128.181Z" fill="#B2AD99"/>
<path d="M97.8425 128.181C97.7919 128.225 97.8425 128.225 97.8931 128.225L97.8425 128.269C97.8931 128.203 97.8931 128.116 97.8425 128.181Z" fill="#B2AD99"/>
<path d="M88.1449 130.85C88.2472 130.85 88.2472 130.807 88.2472 130.764V130.459H88.0426C88.0271 130.596 88.063 130.733 88.1449 130.85Z" fill="#B2AD99"/>
<path d="M123.283 148.294C123.283 148.25 123.079 148.25 123.079 148.25L123.13 148.425C123.13 148.425 123.283 148.338 123.283 148.294Z" fill="#B2AD99"/>
<path d="M89.7693 147.991C89.8203 147.947 89.8203 147.86 89.7693 147.86C89.7184 147.86 89.6165 147.947 89.6165 147.947C89.6644 147.968 89.716 147.983 89.7693 147.991Z" fill="#B2AD99"/>
<path d="M230.93 148.251C230.879 148.207 230.726 148.207 230.726 148.207C230.726 148.207 230.828 148.251 230.93 148.251Z" fill="#B2AD99"/>
<path d="M202.139 128.204C202.139 128.248 202.292 128.248 202.292 128.248L202.241 128.16C202.241 128.16 202.093 128.204 202.139 128.204Z" fill="#B2AD99"/>
<path d="M88.1962 136.882C88.2474 136.882 88.2474 136.752 88.2474 136.708C88.2474 136.665 88.0427 136.752 88.0427 136.752C88.0427 136.752 88.1451 136.882 88.1962 136.882Z" fill="#B2AD99"/>
<path d="M14.6188 144.345C14.7206 144.389 14.8224 144.345 14.8733 144.345C14.7715 144.345 14.6697 144.302 14.6188 144.345Z" fill="#B2AD99"/>
<path d="M157.507 148.208C157.463 148.179 157.409 148.163 157.353 148.163C157.409 148.208 157.507 148.252 157.507 148.208Z" fill="#B2AD99"/>
<path d="M143.085 130.243C143.125 130.203 143.159 130.16 143.186 130.113C143.136 130.069 143.085 130.026 143.034 130.026C142.983 130.026 142.933 130.113 142.933 130.156C142.933 130.2 142.983 130.2 143.085 130.243Z" fill="#B2AD99"/>
<path d="M276.172 146.602C276.205 146.565 276.223 146.519 276.223 146.472C276.167 146.426 276.096 146.396 276.02 146.385C275.969 146.385 275.918 146.472 275.918 146.515C275.918 146.559 276.02 146.602 276.172 146.602Z" fill="#B2AD99"/>
<path d="M143.491 129.158C143.594 129.201 143.594 129.114 143.645 129.114L143.543 128.984C143.543 128.984 143.44 129.114 143.491 129.158Z" fill="#B2AD99"/>
<path d="M168.88 128.724C168.887 128.73 168.895 128.735 168.903 128.738C168.912 128.741 168.921 128.742 168.931 128.742C168.94 128.742 168.95 128.741 168.959 128.738C168.967 128.735 168.975 128.73 168.982 128.724L168.931 128.637C168.931 128.637 168.829 128.724 168.88 128.724Z" fill="#B2AD99"/>
<path d="M197.315 128.768C197.322 128.773 197.33 128.778 197.339 128.781C197.347 128.784 197.357 128.786 197.366 128.786C197.376 128.786 197.385 128.784 197.394 128.781C197.403 128.778 197.411 128.773 197.417 128.768L197.366 128.68C197.366 128.68 197.264 128.724 197.315 128.768Z" fill="#B2AD99"/>
<path d="M143.594 147.514C143.645 147.47 143.594 147.383 143.594 147.383L143.441 147.47C143.441 147.47 143.543 147.557 143.594 147.514Z" fill="#B2AD99"/>
<path d="M88.8047 147.557C88.9066 147.513 88.8047 147.47 88.8047 147.426C88.8047 147.382 88.6519 147.47 88.6519 147.47C88.6519 147.47 88.7538 147.601 88.8047 147.557Z" fill="#B2AD99"/>
<path d="M276.629 147.079C276.635 147.073 276.641 147.067 276.644 147.059C276.648 147.052 276.65 147.044 276.65 147.036C276.65 147.028 276.648 147.02 276.644 147.012C276.641 147.005 276.635 146.998 276.629 146.992C276.578 146.992 276.578 147.123 276.629 147.079Z" fill="#B2AD99"/>
<path d="M6.79907 129.202C6.80812 129.212 6.81971 129.22 6.83296 129.226C6.84621 129.231 6.86076 129.234 6.87551 129.234C6.89025 129.234 6.90481 129.231 6.91805 129.226C6.9313 129.22 6.94289 129.212 6.95194 129.202C7.0029 129.158 6.95194 129.071 6.95194 129.071C6.95194 129.071 6.74812 129.158 6.79907 129.202Z" fill="#B2AD99"/>
<path d="M183.605 129.159C183.656 129.204 183.707 129.159 183.707 129.115C183.707 129.07 183.555 129.115 183.605 129.159Z" fill="#B2AD99"/>
<path d="M276.172 129.983C276.273 129.896 276.273 129.896 276.273 129.852C276.172 129.809 276.07 129.809 275.969 129.765C276.02 129.852 276.02 129.939 276.172 129.983Z" fill="#B2AD99"/>
<path d="M102.413 132.109C102.362 132.022 102.311 132.022 102.311 132.022C102.255 132.101 102.22 132.191 102.209 132.283C102.26 132.24 102.362 132.24 102.413 132.109Z" fill="#B2AD99"/>
<path d="M16.1416 132.717C16.192 132.673 16.1416 132.629 16.0912 132.629C16.0408 132.629 16.0912 132.761 16.1416 132.717Z" fill="#B2AD99"/>
<path d="M255.861 132.087C256.014 134.473 256.064 136.773 256.115 139.246C255.709 139.377 255.1 139.55 254.744 139.377C253.17 138.639 253.373 132.738 254.947 131.956C255.15 131.848 255.455 131.978 255.861 132.087Z" fill="#B2AD99"/>
<path d="M38.8395 131.891C35.6406 132.89 33.6095 134.799 33.5079 137.923C33.4064 141.047 35.0312 143.174 38.4333 144.475C34.7266 144.736 31.5784 142.002 31.4768 138.4C31.3753 134.712 34.4219 131.891 38.8395 131.891Z" fill="#B2AD99"/>
<path d="M66.0104 132.108C66.2135 136.231 66.2135 140.223 66.315 144.432C64.6902 145.083 64.0301 144.389 63.9793 143C63.9285 139.963 63.8777 136.968 63.9793 133.931C64.025 133.02 63.9793 131.718 66.0104 132.108Z" fill="#B2AD99"/>
</g>
<defs>
<clipPath id="clip0_24_225">
<rect width="294" height="147.97" fill="white" transform="translate(0 0.606415)"/>
</clipPath>
</defs>
</svg>
