<svg width="294" height="149" viewBox="0 0 294 149" fill="none" xmlns="http://www.w3.org/2000/svg">
<g clip-path="url(#clip0_38_398)">
<path d="M134.453 38.9806C146.741 38.9806 158.724 38.9372 170.759 39.024C179.543 39.0674 186.347 42.886 189.191 49.4383C190.077 51.6158 190.54 53.9024 190.562 56.2076C190.663 68.1406 190.663 80.0737 190.562 92.0067C190.46 102.074 182.183 108.973 170.403 108.973H122.165C109.471 108.973 101.448 102.204 101.448 91.3992V55.6001C101.448 46.6178 108.912 39.6749 119.423 39.1108C124.348 38.8505 129.274 39.024 134.453 38.9806ZM127.293 81.1151C129.578 79.9869 130.594 78.2512 130.594 76.0815C130.645 69.6594 130.695 63.2372 130.543 56.7717C130.492 53.3871 127.75 51.174 124.196 51.2174C120.489 51.2608 117.9 53.5606 117.9 57.0321C117.849 63.2372 117.798 69.4424 117.9 75.691C117.95 80.334 121.759 82.6338 127.293 81.1151ZM161.365 56.034C161.365 56.034 161.314 69.2255 161.314 75.7778C161.314 79.4662 163.802 81.7226 167.712 81.6792C171.622 81.6358 173.958 79.4228 174.008 75.691C174.059 69.5726 174.059 63.4108 174.008 57.2924C174.008 53.9946 171.977 51.7381 168.728 51.3042C165.325 50.8703 162.634 52.4758 161.365 56.0774M145.37 82.0697H136.281C136.281 85.628 135.925 88.9692 136.382 92.2237C136.941 96.2592 141.308 99.0797 146.03 99.0363C150.752 98.9929 155.17 96.2158 155.729 92.2237C156.186 88.9692 155.83 85.628 155.83 82.0697H145.37Z" fill="#4DA0DC"/>
<path d="M144.101 0.469448C148.214 -0.00787274 151.108 1.12034 152.53 3.7673C153.951 6.32748 153.241 8.75748 150.549 11.2309C149.871 11.9289 149.478 12.7976 149.432 13.7043C149.331 17.3059 149.483 20.9509 149.331 24.5525C149.28 26.375 149.991 26.8957 152.073 26.8957C156.998 26.8957 160.095 28.8484 161.365 32.3198C161.923 33.8385 161.67 34.6196 159.486 34.5762C150.499 34.5328 141.562 34.4894 132.574 34.5328C130.238 34.5328 130.035 33.7084 130.746 32.1028C131.312 30.6139 132.4 29.3097 133.862 28.3666C135.325 27.4236 137.091 26.8874 138.921 26.8306C140.089 26.7872 141.257 26.7438 142.679 26.657C142.679 21.8838 142.73 17.2408 142.628 12.6411C142.52 12.0917 142.176 11.5965 141.663 11.2526C137.144 7.4123 138.114 2.76927 144.101 0.469448Z" fill="#4DA0DC"/>
<path d="M197.925 60.612C202.19 61.827 204.272 64.3872 204.424 67.9454C204.627 71.8507 204.576 75.7561 204.424 79.6614C204.221 84.0007 200.26 87.2552 195.386 86.9948V81.9396C195.386 75.3872 195.437 68.7915 195.335 62.2392C195.335 60.612 196 60.0913 197.925 60.612Z" fill="#4DA0DC"/>
<path d="M171.267 148.005C168.118 148.092 167.661 147.745 167.611 145.185C167.611 140.542 167.56 135.942 167.661 131.299C167.661 130.431 168.169 129.52 168.626 128.565C168.778 128.478 168.728 128.522 168.728 128.522C169.278 128.303 169.858 128.143 170.454 128.044C174.872 132.34 178.68 136.68 182.691 141.192V131.038C182.844 130.691 182.945 130.301 183.301 129.39C183.504 128.869 183.453 128.912 183.453 128.912C184.367 128.529 185.342 128.266 186.347 128.131C186.703 132.861 187.007 137.374 187.007 141.93C187.007 143.926 186.398 145.879 186.093 147.875C184.215 148.265 182.895 147.701 181.828 146.313C179.239 143.102 176.547 139.977 173.704 136.593C173.145 135.942 172.79 135.508 172.384 135.074C172.028 135.161 171.673 135.204 171.317 135.291C171.267 139.5 171.267 143.753 171.267 148.005Z" fill="#4DA0DC"/>
<path d="M87.5857 71.2432C87.5553 69.8822 87.6061 68.5208 87.738 67.1642C87.9199 65.6055 88.6694 64.1349 89.8809 62.9594C91.0925 61.7839 92.705 60.9629 94.4914 60.6119C95.71 60.3516 96.6748 60.3082 96.6748 61.7835C96.624 69.9414 96.624 78.0559 96.624 86.2137C96.5871 86.4837 96.5014 86.7472 96.3701 86.9948C91.851 87.1684 87.9919 84.1742 87.6872 80.0953C87.4841 77.2314 87.5857 74.3241 87.5857 71.2432Z" fill="#4DA0DC"/>
<path d="M264.849 147.897C263.732 147.463 262.513 147.116 261.599 146.508C259.873 145.38 258.349 144.078 256.42 142.863C254.541 142.342 253.982 142.993 253.779 144.252C253.576 145.51 253.221 146.768 252.967 147.983C250.733 148.287 249.819 147.289 249.819 145.553C249.768 140.65 249.819 135.79 249.819 130.887C249.819 129.108 250.885 128.153 252.865 128.109C255.56 128.049 258.257 128.136 260.939 128.37C267.591 131.407 268.708 137.222 263.782 140.997C262.361 142.082 263.325 143.08 264.189 143.991C265.357 145.206 266.118 146.421 264.849 147.897ZM255.658 131.798C255.404 131.798 255.1 131.668 254.947 131.754C253.373 132.492 253.17 138.437 254.744 139.175C255.1 139.348 255.709 139.175 256.623 139.218C258.4 138.784 260.583 138.784 261.802 137.829C262.716 137.135 262.818 135.139 262.462 133.924C261.853 131.885 259.517 131.885 257.537 131.798C257.537 131.798 257.588 131.798 257.181 131.885C256.671 131.882 256.162 131.845 255.658 131.776V131.798Z" fill="#4DA0DC"/>
<path d="M45.2881 146.747C42.3938 149.264 35.0311 148.049 31.9845 145.835C27.9731 142.928 26.5006 138.112 28.5316 134.119C30.1057 131.082 32.8985 129.259 36.7068 128.088C37.2879 127.933 37.8821 127.817 38.484 127.741C39.4487 127.827 40.3627 127.871 41.886 128.088C43.257 128.652 44.0187 129.086 44.8311 129.476C50.5182 132.254 52.5493 137.591 49.4011 142.494C48.4363 144.1 46.7099 145.358 45.2881 146.747ZM38.6363 131.603C34.4726 131.603 31.3752 134.467 31.4767 138.198C31.5783 141.8 34.6757 144.534 38.941 144.317C43.9171 144.49 47.0145 142.017 47.0145 137.895C47.0145 134.011 43.714 131.429 38.6363 131.603Z" fill="#4DA0DC"/>
<path d="M70.3215 147.831C67.8842 147.875 65.4468 147.962 63.0095 147.962C61.1308 147.962 60.2168 147.05 60.166 145.532C60.1152 140.541 60.1152 135.595 60.166 130.605C60.166 129.042 61.2323 128.175 62.9588 128.088C65.4835 128.012 68.0114 128.084 70.5246 128.305C70.9722 128.561 71.4484 128.779 71.9463 128.956C79.1059 131.603 81.4417 138.545 76.5671 143.753C74.9422 145.445 72.4033 146.486 70.3215 147.831ZM66.8178 144.317C69.8645 144.577 72.3525 143.796 74.0282 141.54C75.7038 139.283 75.6531 136.896 74.1298 134.553C72.3525 131.863 69.4075 131.603 65.9038 131.733C64.0251 131.472 64.0759 132.731 64.0251 133.642C63.9235 136.68 64.0251 139.674 64.0251 142.711C64.0251 144.1 64.6852 144.794 66.8178 144.317Z" fill="#4DA0DC"/>
<path d="M102.702 148.161C98.3808 148.161 94.0698 148.161 89.4998 148.031C89.2967 147.901 89.2967 148.031 89.2967 148.031C89.1393 147.944 88.9362 147.853 88.5757 147.636C88.3675 147.502 88.4183 147.549 88.4183 147.549C88.266 147.285 88.1136 146.977 87.7531 146.317C87.5449 145.922 87.4941 145.835 87.4941 145.835H87.5449C87.5957 142.932 87.6516 140.034 87.7531 136.914V136.636L88.2609 130.605V130.431C88.5055 129.845 88.8114 129.278 89.1749 128.739C89.2854 128.614 89.3871 128.483 89.4795 128.348L89.5303 128.392C90.5459 128.261 91.5614 128.131 92.9832 128.044H97.8578C99.1779 127.996 100.5 128.011 101.818 128.088C103.951 129.173 103.697 130.388 102.885 131.646C102.783 131.689 102.682 131.733 102.428 131.82C102.275 131.863 102.275 131.95 102.275 131.95H101.26C99.8228 131.902 98.6397 131.902 97.5074 131.902C96.5833 131.95 95.654 131.993 94.2678 131.993C90.4087 131.685 91.9524 133.924 91.8 135.113C91.6426 136.606 92.775 136.736 94.3694 136.519C96.033 136.329 97.7233 136.402 99.3557 136.736C99.9752 136.87 100.879 137.925 100.798 138.472C100.645 139.175 99.7822 139.878 99.0003 140.277C98.4315 140.581 97.5074 140.364 96.7864 140.407C96.172 140.364 95.5525 140.364 94.3694 140.277C93.3945 140.186 92.6734 140.056 92.6734 140.099C92.3637 141.375 91.9524 142.646 92.0032 143.922C92.0032 144.23 93.5976 144.538 94.542 144.755C95.0375 144.807 95.5396 144.792 96.0298 144.712C97.2637 144.755 98.4976 144.803 100.143 144.889C100.281 144.895 100.418 144.909 100.554 144.933C101.107 144.88 101.667 144.924 102.199 145.063C102.54 146.07 102.709 147.113 102.702 148.161Z" fill="#4DA0DC"/>
<path d="M276.68 128.652C277.289 128.478 277.949 128.348 279.473 128.001C282.21 127.834 284.956 127.79 287.699 127.871C291.151 127.958 291.761 128.739 290.644 131.646C290.174 131.729 289.7 131.787 289.222 131.82C287.242 131.776 285.718 131.776 284.144 131.776C283.606 131.842 283.061 131.857 282.519 131.82C278.762 131.516 280.133 133.685 280.031 134.9C279.879 136.332 280.945 136.68 282.57 136.332C283.636 136.129 284.73 136.056 285.82 136.115C288.714 136.246 289.577 137.591 288.206 139.804C286.581 139.847 284.957 139.891 282.875 139.934C281.707 139.977 280.488 140.021 280.488 140.194C280.277 141.445 280.243 142.712 280.387 143.97C280.437 144.23 281.605 144.49 282.265 144.49C284.093 144.534 285.921 144.36 287.8 144.36C291.101 144.36 291.761 145.185 290.847 147.962C286.937 148.005 283.027 148.092 279.117 148.049C278.305 148.049 277.492 147.484 276.629 147.05L276.578 146.964C276.439 146.849 276.319 146.717 276.223 146.573C276.172 146.443 276.121 146.53 276.121 146.53V129.997C276.172 129.823 276.172 129.867 276.172 129.867C276.223 129.693 276.324 129.563 276.477 129.216C276.578 128.999 276.629 128.869 276.629 128.869L276.68 128.652Z" fill="#4DA0DC"/>
<path d="M143.131 129.832C143.204 129.549 143.306 129.272 143.435 129.003L143.537 128.826C143.879 128.617 144.237 128.429 144.608 128.261C144.784 128.201 144.954 128.129 145.116 128.044H145.248C148.33 127.958 151.407 127.871 154.896 127.697C158.176 128.001 158.633 128.734 157.775 131.451C157.089 131.548 156.397 131.605 155.703 131.624C153.784 131.581 152.266 131.581 150.752 131.538C150.286 131.604 149.813 131.633 149.341 131.624C145.786 131.581 147.066 133.612 147.066 134.818C147.066 136.285 148.229 136.328 149.742 136.029C151.282 135.768 152.871 135.811 154.388 136.155C155.094 136.328 155.957 137.582 155.855 138.229C155.754 138.875 154.54 139.609 153.682 139.739C152.316 139.956 150.854 139.652 149.437 139.609C148.782 139.609 147.523 139.652 147.472 139.869C147.211 141.034 147.125 142.222 147.218 143.406C147.269 143.666 148.478 143.839 149.188 144.056C150.651 144.056 152.067 144.1 153.835 144.1H153.921C155.078 144.075 156.235 144.154 157.374 144.334C157.731 145.497 157.913 146.694 157.917 147.897C157.812 147.943 157.699 147.976 157.582 147.992H157.958C154.038 147.992 150.179 148.083 146.279 147.992C145.355 147.992 144.375 147.619 143.288 147.294C143.126 147.155 143.176 147.246 143.176 147.246C143.014 146.968 142.851 146.643 142.526 145.944C142.468 145.755 142.395 145.569 142.308 145.389H142.877C142.928 140.286 142.978 135.183 143.08 129.906L143.131 129.832Z" fill="#4DA0DC"/>
<path d="M233.367 144.1C236.16 143.492 237.378 142.234 237.429 139.674C237.48 136.723 237.429 133.772 237.429 130.822C237.429 129.433 237.632 128.175 240.07 128.044C241.792 132.944 241.898 138.155 240.374 143.102C240.021 143.913 239.426 144.631 238.648 145.185C237.299 146.143 235.892 147.041 234.433 147.875C233.418 147.918 232.352 147.962 231.031 147.962C230.727 147.918 230.879 147.918 230.879 147.918C225.852 147.311 222.45 144.49 222.145 140.238C221.9 136.915 221.883 133.582 222.095 130.258C222.145 129.433 223.415 128.695 224.481 127.958C225.192 129.129 225.852 130.258 225.903 131.429C226.055 134.206 225.852 137.027 226.055 139.804C226.258 142.972 228.188 144.447 231.336 144.23C231.793 144.23 232.199 144.23 232.91 144.187C233.067 144.176 233.212 144.114 233.316 144.013L233.367 144.1Z" fill="#4DA0DC"/>
<path d="M124.348 140.585C126.075 137.07 127.75 133.512 129.629 130.084C130.086 129.259 131.305 128.695 132.473 128.088C132.879 129.303 133.387 130.605 132.93 131.603C130.391 137.07 127.598 142.451 124.907 147.875C124.501 147.918 124.094 147.962 123.383 148.005H123.231C122.419 147.441 121.251 147.007 120.895 146.269C118.356 141.193 115.919 136.029 113.533 130.908C112.771 129.303 113.279 128.261 115.767 128.088C118.458 132.731 120.845 137.331 123.485 142.408C123.942 141.409 124.145 141.019 124.348 140.585Z" fill="#4DA0DC"/>
<path d="M6.84962 128.999C7.30662 128.825 7.81439 128.652 8.98227 128.261C12.0289 128.392 14.4154 128.522 16.6496 129.129C18.5792 129.65 19.3408 130.995 18.1222 132.687C17.5906 132.691 17.061 132.633 16.5481 132.514C16.0403 132.384 16.0911 132.427 16.0911 132.427C14.7709 132.167 13.3999 131.863 11.6735 131.603C6.79885 131.646 3.90455 134.163 3.95532 138.025C3.95532 141.757 7.00196 144.36 11.3688 144.447C12.3336 144.36 13.3491 144.273 14.5678 144.143C14.7709 144.1 14.6693 144.143 14.6693 144.143C15.5984 143.773 16.5679 143.483 17.5636 143.275C19.1885 144.837 18.7315 145.966 16.9035 146.833C16.4451 147.116 16.02 147.435 15.6341 147.788C8.77916 148.743 3.24444 146.53 0.959471 141.843C-1.42706 136.94 0.705584 131.95 6.64652 128.956C6.9004 128.999 6.84962 128.999 6.84962 128.999Z" fill="#4DA0DC"/>
<path d="M211.177 131.733C210.639 131.798 210.094 131.812 209.552 131.776C207.166 131.386 207.014 132.47 207.014 133.642C206.963 137.113 207.064 140.541 206.963 144.013C206.912 145.315 206.303 146.616 205.998 147.962C203.612 148.352 203.053 147.094 203.002 145.488C202.951 141.887 202.85 138.285 203.053 134.727C203.155 132.687 202.596 131.776 199.956 131.82C196.655 131.82 195.944 130.778 197.366 128.608C197.518 128.565 197.468 128.608 197.468 128.608C197.772 128.478 198.026 128.348 198.737 128.044C198.931 127.955 199.135 127.883 199.346 127.827L199.397 127.914C200.057 127.958 200.768 128.001 201.885 128.044H202.241C205.49 128.044 208.74 128.044 212.345 128.175C213.361 129.823 213.716 131.169 211.177 131.733Z" fill="#4DA0DC"/>
<path d="M234.535 147.918C235.855 147.007 237.328 146.183 238.648 145.185C239.426 144.63 240.021 143.913 240.374 143.102C241.847 138.176 241.847 133.013 240.374 128.088C240.171 128.088 240.019 128.131 239.917 128.131C240.019 128.044 240.12 127.958 240.222 127.958C242.355 127.741 243.421 128.478 243.37 130.388C243.319 133.512 243.472 136.593 243.37 139.717C243.167 144.143 239.714 147.354 234.535 147.918Z" fill="#B2AD99"/>
<path d="M70.4736 147.897C72.4032 146.551 74.942 145.51 76.5669 143.818C81.4415 138.611 79.1058 131.668 71.9462 129.021C71.53 128.865 71.1233 128.691 70.7275 128.5C73.3479 128.649 75.8203 129.591 77.7004 131.158C79.5805 132.725 80.745 134.814 80.9845 137.048C81.2409 139.328 80.5809 141.615 79.1134 143.532C77.6459 145.448 75.4583 146.881 72.9109 147.593C72.1493 147.701 71.3876 147.745 70.4736 147.897Z" fill="#B2AD99"/>
<path d="M264.798 147.918C266.169 146.4 265.356 145.185 264.239 144.013C263.376 143.102 262.411 142.104 263.833 141.019C268.758 137.244 267.641 131.429 261.142 128.478C264.493 128.435 266.727 130.084 268.048 132.601C269.368 135.117 269.266 137.938 266.829 139.847C264.544 141.67 264.849 142.885 266.677 144.62C266.988 144.968 267.2 145.372 267.297 145.801C267.394 146.23 267.373 146.673 267.235 147.094C267.032 147.571 265.61 147.658 264.798 147.918Z" fill="#B2AD99"/>
<path d="M45.3897 146.79C46.7099 145.358 48.4363 144.1 49.4518 142.538C52.5492 137.634 50.5689 132.254 44.8819 129.52C44.0695 129.129 43.3078 128.695 42.4446 128.218C51.0767 129.433 55.5959 136.419 51.4321 142.668C50.1627 144.425 47.4715 145.402 45.3897 146.79Z" fill="#B2AD99"/>
<path d="M125.059 147.918C127.649 142.451 130.391 137.07 132.93 131.603C133.387 130.605 132.879 129.303 132.726 128.131C132.594 128.1 132.457 128.086 132.32 128.088C132.376 128.042 132.447 128.012 132.523 128.001C135.062 127.827 136.129 128.826 135.215 130.822C132.828 136.029 130.34 141.192 127.75 146.356C127.395 147.094 126.075 147.463 125.059 147.918Z" fill="#B2AD99"/>
<path d="M231.184 144.23C228.137 144.534 226.207 143.058 226.004 139.891C225.801 137.113 226.055 134.293 225.852 131.516C225.801 130.344 225.141 129.216 224.684 128.088C224.547 128.075 224.407 128.089 224.278 128.131C224.329 128.088 224.43 128.044 224.481 128.001C227.02 127.741 227.832 128.348 227.832 130.605C227.883 133.468 227.883 136.332 227.832 139.196C227.832 141.409 228.695 143.145 231.184 144.23Z" fill="#B2AD99"/>
<path d="M186.449 147.918C186.601 145.922 187.211 143.926 187.211 141.974C187.211 137.461 186.906 132.948 186.703 128.218C188.531 127.871 189.089 128.869 189.089 130.127C189.14 135.248 189.14 140.325 189.089 145.445C189.039 146.834 188.429 147.897 186.449 147.918Z" fill="#B2AD99"/>
<path d="M205.846 147.918C206.303 146.616 206.861 145.315 206.912 144.013C207.065 140.585 206.963 137.113 206.963 133.642C206.963 132.47 207.166 131.386 209.248 131.733C209.197 132.601 208.791 133.425 208.791 134.206C208.74 138.025 208.74 141.843 208.74 145.662C208.74 147.398 207.928 148.265 205.846 148.005C205.744 148.005 205.694 147.962 205.592 147.962C205.648 147.918 205.694 147.918 205.846 147.918Z" fill="#B2AD99"/>
<path d="M182.691 130.865C182.844 134.293 182.844 137.504 182.844 141.192C178.832 136.636 175.024 132.297 171.216 127.958L170.911 127.827C170.962 127.871 171.013 127.914 171.063 127.914C172.942 127.654 174.009 128.565 174.973 129.737C177.004 132.21 179.035 134.64 181.117 137.113C181.62 137.775 182.346 138.289 183.199 138.589V130.388C183.199 130.344 182.844 130.301 182.641 130.257C182.585 130.46 182.603 130.671 182.691 130.865Z" fill="#B2AD99"/>
<path d="M149.179 144.186C148.569 144.1 147.3 143.926 147.3 143.666C147.156 142.476 147.242 141.274 147.554 140.108C147.604 139.934 148.823 139.847 149.534 139.847C150.956 139.847 152.428 140.151 153.799 139.977C154.662 139.847 155.881 139.066 155.983 138.459C156.084 137.851 155.221 136.549 154.51 136.376C152.985 136.03 151.387 135.985 149.839 136.246C148.315 136.506 147.147 136.463 147.147 135.031C147.147 133.772 145.878 131.733 149.179 131.776C149.179 132.731 148.975 133.642 148.874 134.553C148.722 135.725 149.432 136.246 150.803 136.202C152.479 136.159 154.205 135.985 155.83 136.289C156.744 136.463 157.404 137.417 158.217 138.025C157.404 138.589 156.744 139.413 155.83 139.717C154.916 140.021 153.85 139.804 152.834 139.804C148.468 139.804 147.96 140.411 149.179 144.186Z" fill="#B2AD99"/>
<path d="M11.3183 144.36C7.05298 144.36 4.05712 141.757 4.00635 138.025C4.00635 134.163 6.84987 131.646 11.5214 131.603C8.27163 132.601 6.13899 134.467 5.98666 137.678C5.83433 140.889 7.66231 143.123 11.3183 144.36Z" fill="#B2AD99"/>
<path d="M124.247 140.411C124.083 141.105 123.81 141.777 123.434 142.408C120.794 137.287 118.408 132.731 115.97 128.131C117.646 127.784 118.255 128.131 119.118 129.91C120.85 133.338 122.47 136.81 124.247 140.411Z" fill="#B2AD99"/>
<path d="M171.627 148.005C171.424 143.753 171.424 139.5 171.424 135.291C171.779 135.204 172.135 135.161 172.49 135.074C172.896 135.508 173.252 135.942 173.658 136.419C173.658 139.5 173.76 142.538 173.506 145.575C173.45 146.443 172.434 147.224 171.627 148.005Z" fill="#B2AD99"/>
<path d="M291.05 147.897C291.812 145.076 291.151 144.252 287.851 144.252C286.023 144.252 284.144 144.425 282.316 144.382C281.656 144.382 280.437 144.078 280.437 143.861C280.293 142.604 280.328 141.336 280.539 140.086C280.59 139.912 281.758 139.912 282.57 139.826C282.519 141.127 282.062 142.472 282.316 143.644C282.418 144.035 284.296 144.295 285.363 144.382C287.14 144.512 288.968 144.208 290.644 144.425C291.659 144.555 293.132 145.25 293.436 145.987C293.944 147.224 292.725 147.918 291.05 147.897Z" fill="#B2AD99"/>
<path d="M288.359 139.847C289.73 137.591 288.917 136.246 285.972 136.115C284.882 136.058 283.788 136.131 282.722 136.332C281.148 136.68 280.082 136.376 280.183 134.9C280.285 133.685 278.914 131.516 282.367 131.82C280.945 135.204 281.707 136.289 285.617 136.289H288.156C289.73 136.289 291.202 136.506 291.202 138.155C291.253 139.717 289.78 139.891 288.359 139.847Z" fill="#B2AD99"/>
<path d="M97.081 139.978C97.9442 139.978 98.8582 140.151 99.4168 139.891C100.178 139.5 101.042 138.763 101.194 138.112C101.296 137.634 100.432 136.55 99.7722 136.419C98.1602 136.088 96.4902 136.014 94.8468 136.202C93.2727 136.419 92.1556 136.289 92.308 134.814C92.4603 133.642 90.937 131.429 94.4406 131.733C92.9681 135.118 93.7297 136.159 97.7411 136.159C98.909 136.159 100.178 135.942 101.245 136.246C102.108 136.506 102.667 137.417 103.327 138.025C102.616 138.589 101.956 139.457 101.092 139.674C99.8738 140.021 98.4012 139.891 97.081 139.978Z" fill="#B2AD99"/>
<path d="M18.0716 132.818C19.341 130.995 18.5793 129.65 16.6498 129.129C14.4156 128.522 12.0291 128.392 9.69334 128.044C9.60589 128.047 9.51888 128.032 9.43945 128.001C9.49023 128.088 9.54101 128.261 9.59178 128.261C12.9431 127.611 16.1928 127.784 19.1379 129.303C19.9503 129.737 20.255 130.822 20.8135 131.646C19.9503 132.037 19.0363 132.427 18.1731 132.818C18.1224 132.861 18.0208 132.818 17.9192 132.818C17.8177 132.818 17.7669 132.861 17.7161 132.861C17.8367 132.887 17.9644 132.872 18.0716 132.818Z" fill="#B2AD99"/>
<path d="M290.999 131.689C291.913 128.739 291.304 127.958 287.851 127.871C285.414 127.827 282.976 127.827 280.59 127.827L279.828 127.567C279.777 127.741 279.777 127.871 279.727 128.044H286.683C288.003 128.044 289.425 127.871 290.694 128.131C291.761 128.348 293.132 129.042 293.436 129.737C293.944 131.039 292.573 131.603 290.999 131.689Z" fill="#B2AD99"/>
<path d="M252.916 148.048C253.272 146.66 253.627 145.445 253.83 144.187C254.033 142.928 254.592 142.277 256.166 142.798C256.064 143.709 255.811 144.62 255.811 145.575C255.76 147.224 255.1 148.222 252.916 148.005H252.662C252.662 148.048 252.713 148.092 252.916 148.048Z" fill="#B2AD99"/>
<path d="M15.8882 147.897C16.1591 147.505 16.5222 147.165 16.9545 146.899C18.7317 146.031 19.2395 144.903 18.0208 143.34C17.9165 143.33 17.8108 143.345 17.7162 143.384C17.7711 143.329 17.822 143.271 17.8685 143.21L20.7628 144.382C20.255 145.163 19.9504 146.161 19.2395 146.725C18.427 147.311 17.1576 147.484 15.8882 147.897Z" fill="#B2AD99"/>
<path d="M211.279 131.776C213.716 131.212 213.361 129.823 212.548 128.218C214.072 128.044 215.443 128.435 215.189 129.867C215.036 130.605 213.564 131.169 212.65 131.689C212.345 131.906 211.787 131.776 211.279 131.776Z" fill="#B2AD99"/>
<path d="M157.963 131.646C158.725 128.869 158.217 128.131 155.322 127.741C155.119 127.741 154.916 127.697 154.408 127.654C156.49 128.565 159.537 126.96 160.349 129.607C160.756 130.973 159.588 131.559 157.963 131.646Z" fill="#B2AD99"/>
<path d="M96.5731 144.187C96.0461 144.32 95.4906 144.349 94.9482 144.273C94.0342 144.056 92.4601 143.753 92.4601 143.449C92.4094 142.19 92.8156 140.932 93.1202 139.674C93.5313 139.725 93.9382 139.797 94.3389 139.891C94.2881 140.759 94.1358 141.496 94.0342 142.234C93.8311 143.926 94.7959 144.577 96.6747 144.36C96.7254 144.36 96.7762 144.317 96.827 144.273C96.8778 144.23 96.7762 144.187 96.5731 144.187Z" fill="#B2AD99"/>
<path d="M103.078 131.646C103.687 130.301 103.941 129.086 102.367 128.088C102.225 128.025 102.089 127.953 101.961 127.871C102.113 127.914 102.215 128.001 102.367 128.044C102.875 128.088 103.484 127.958 103.839 128.175C104.516 128.681 105.144 129.232 105.718 129.824C104.85 130.431 104.037 131.082 103.078 131.646Z" fill="#B2AD99"/>
<path d="M103.225 147.897C103.009 146.82 102.873 145.733 102.819 144.642C103.733 144.989 105.256 145.293 105.51 145.987C105.967 147.137 104.951 147.897 103.225 147.897Z" fill="#B2AD99"/>
<path d="M157.963 147.897C157.782 146.818 157.68 145.731 157.658 144.642C159.08 144.208 160.146 144.642 160.349 145.944C160.553 147.246 159.689 147.918 157.963 147.897Z" fill="#B2AD99"/>
<path d="M284.449 131.776C285.871 131.733 287.445 131.733 289.12 131.733C287.749 131.776 286.175 131.776 284.449 131.776Z" fill="#B2AD99"/>
<path d="M150.854 131.95C152.276 131.906 153.799 131.906 155.424 131.95H150.854Z" fill="#B2AD99"/>
<path d="M38.8902 127.827C38.3204 127.93 37.7439 128.002 37.1638 128.044H36.4529V128.391C37.3161 128.305 38.1793 128.175 39.0425 128.088C39.0933 128.088 39.1948 128.001 39.2456 127.958C39.1948 127.958 39.1441 127.871 38.8902 127.827Z" fill="#B2AD99"/>
<path d="M98.0964 131.733C99.112 131.689 100.229 131.689 101.549 131.689C100.539 131.733 99.3659 131.733 98.0964 131.733Z" fill="#B2AD99"/>
<path d="M145.319 128.175C145.266 128.167 145.215 128.153 145.167 128.131L145.015 128.218C145.167 128.218 145.319 128.218 145.319 128.175Z" fill="#B2AD99"/>
<path d="M199.193 127.937C199.164 127.924 199.14 127.906 199.122 127.883C199.104 127.86 199.094 127.833 199.092 127.806C199.092 127.806 198.889 127.849 198.939 127.849C198.787 127.806 198.584 127.762 198.432 127.719V128.067C198.686 128.002 198.99 127.958 199.193 127.937Z" fill="#B2AD99"/>
<path d="M154.155 144.534C154.104 144.534 154.053 144.447 153.951 144.404C154.053 144.447 154.104 144.447 154.155 144.534Z" fill="#B2AD99"/>
<path d="M89.515 128.305C89.515 128.348 89.4643 128.348 89.515 128.305C89.515 128.348 89.4136 128.435 89.4136 128.392C89.528 128.359 89.6482 128.345 89.7687 128.348C89.6672 128.305 89.6165 128.261 89.515 128.305Z" fill="#B2AD99"/>
<path d="M233.419 144.143C233.365 144.136 233.314 144.121 233.266 144.1C233.266 144.1 233.164 144.231 233.215 144.231C233.266 144.231 233.419 144.187 233.419 144.143Z" fill="#B2AD99"/>
<path d="M276.884 128.478H276.782L276.73 128.609L276.833 128.653C276.833 128.653 276.935 128.478 276.884 128.478Z" fill="#B2AD99"/>
<path d="M142.933 145.445C142.984 145.489 142.882 145.489 142.933 145.445C142.882 145.489 142.984 145.576 142.984 145.533C142.984 145.489 143.035 145.533 143.086 145.576V145.402C143.035 145.402 142.933 145.402 142.933 145.445Z" fill="#B2AD99"/>
<path d="M88.0944 145.488C88.0679 145.513 88.0314 145.529 87.9921 145.532L88.0432 145.619C87.9865 145.698 87.9515 145.787 87.9409 145.879C87.9921 145.879 88.0944 145.923 88.1456 145.923C88.1539 145.777 88.1367 145.63 88.0944 145.488Z" fill="#B2AD99"/>
<path d="M93.2727 127.936C93.2727 127.947 93.2775 127.957 93.2862 127.965C93.2948 127.973 93.3065 127.977 93.3187 127.977C93.3187 127.966 93.3138 127.956 93.3052 127.948C93.2966 127.94 93.2849 127.936 93.2727 127.936Z" fill="#B2AD99"/>
<path d="M97.8425 127.936C97.7919 127.98 97.8425 127.98 97.8931 127.98L97.8425 128.023C97.8931 127.958 97.8931 127.871 97.8425 127.936Z" fill="#B2AD99"/>
<path d="M88.1449 130.605C88.2472 130.605 88.2472 130.562 88.2472 130.518V130.214H88.0426C88.0271 130.35 88.063 130.487 88.1449 130.605Z" fill="#B2AD99"/>
<path d="M123.283 148.048C123.283 148.005 123.079 148.005 123.079 148.005L123.13 148.179C123.13 148.179 123.283 148.092 123.283 148.048Z" fill="#B2AD99"/>
<path d="M89.7693 147.745C89.8203 147.702 89.8203 147.614 89.7693 147.614C89.7184 147.614 89.6165 147.702 89.6165 147.702C89.6644 147.723 89.716 147.738 89.7693 147.745Z" fill="#B2AD99"/>
<path d="M230.93 148.005C230.879 147.961 230.726 147.961 230.726 147.961C230.726 147.961 230.828 148.005 230.93 148.005Z" fill="#B2AD99"/>
<path d="M202.139 127.958C202.139 128.002 202.292 128.002 202.292 128.002L202.241 127.914C202.241 127.914 202.093 127.958 202.139 127.958Z" fill="#B2AD99"/>
<path d="M88.1962 136.636C88.2474 136.636 88.2474 136.506 88.2474 136.463C88.2474 136.419 88.0427 136.506 88.0427 136.506C88.0427 136.506 88.1451 136.636 88.1962 136.636Z" fill="#B2AD99"/>
<path d="M14.6187 144.1C14.7205 144.143 14.8223 144.1 14.8732 144.1C14.7714 144.1 14.6696 144.056 14.6187 144.1Z" fill="#B2AD99"/>
<path d="M157.507 147.962C157.463 147.933 157.409 147.918 157.353 147.918C157.409 147.962 157.507 148.006 157.507 147.962Z" fill="#B2AD99"/>
<path d="M143.085 129.998C143.125 129.958 143.159 129.914 143.186 129.867C143.136 129.824 143.085 129.78 143.034 129.78C142.983 129.78 142.933 129.867 142.933 129.911C142.933 129.954 142.983 129.954 143.085 129.998Z" fill="#B2AD99"/>
<path d="M276.172 146.357C276.205 146.319 276.223 146.273 276.223 146.226C276.167 146.18 276.096 146.15 276.02 146.139C275.969 146.139 275.918 146.226 275.918 146.27C275.918 146.313 276.02 146.357 276.172 146.357Z" fill="#B2AD99"/>
<path d="M143.491 128.912C143.594 128.956 143.594 128.869 143.645 128.869L143.543 128.739C143.543 128.739 143.44 128.869 143.491 128.912Z" fill="#B2AD99"/>
<path d="M168.88 128.479C168.887 128.485 168.895 128.489 168.903 128.492C168.912 128.495 168.921 128.497 168.931 128.497C168.94 128.497 168.95 128.495 168.959 128.492C168.967 128.489 168.975 128.485 168.982 128.479L168.931 128.392C168.931 128.392 168.829 128.479 168.88 128.479Z" fill="#B2AD99"/>
<path d="M197.315 128.522C197.322 128.528 197.33 128.532 197.339 128.536C197.347 128.539 197.357 128.54 197.366 128.54C197.376 128.54 197.385 128.539 197.394 128.536C197.403 128.532 197.411 128.528 197.417 128.522L197.366 128.435C197.366 128.435 197.264 128.479 197.315 128.522Z" fill="#B2AD99"/>
<path d="M143.594 147.268C143.645 147.225 143.594 147.137 143.594 147.137L143.441 147.225C143.441 147.225 143.543 147.312 143.594 147.268Z" fill="#B2AD99"/>
<path d="M88.8047 147.312C88.9066 147.268 88.8047 147.224 88.8047 147.181C88.8047 147.137 88.6519 147.224 88.6519 147.224C88.6519 147.224 88.7538 147.355 88.8047 147.312Z" fill="#B2AD99"/>
<path d="M276.629 146.834C276.635 146.828 276.641 146.821 276.644 146.814C276.648 146.806 276.65 146.798 276.65 146.79C276.65 146.782 276.648 146.774 276.644 146.767C276.641 146.759 276.635 146.752 276.629 146.747C276.578 146.747 276.578 146.877 276.629 146.834Z" fill="#B2AD99"/>
<path d="M6.79919 128.957C6.80825 128.967 6.81984 128.975 6.83308 128.98C6.84633 128.986 6.86088 128.989 6.87563 128.989C6.89038 128.989 6.90493 128.986 6.91817 128.98C6.93142 128.975 6.94301 128.967 6.95206 128.957C7.00302 128.913 6.95206 128.825 6.95206 128.825C6.95206 128.825 6.74824 128.913 6.79919 128.957Z" fill="#B2AD99"/>
<path d="M183.605 128.914C183.656 128.958 183.707 128.914 183.707 128.869C183.707 128.825 183.555 128.869 183.605 128.914Z" fill="#B2AD99"/>
<path d="M276.172 129.737C276.273 129.65 276.273 129.65 276.273 129.607C276.172 129.563 276.07 129.563 275.969 129.52C276.02 129.607 276.02 129.694 276.172 129.737Z" fill="#B2AD99"/>
<path d="M102.413 131.863C102.362 131.776 102.311 131.776 102.311 131.776C102.255 131.856 102.22 131.945 102.209 132.038C102.26 131.994 102.362 131.994 102.413 131.863Z" fill="#B2AD99"/>
<path d="M16.1416 132.471C16.192 132.428 16.1416 132.384 16.0912 132.384C16.0408 132.384 16.0912 132.515 16.1416 132.471Z" fill="#B2AD99"/>
<path d="M255.861 131.841C256.014 134.228 256.064 136.528 256.115 139.001C255.709 139.131 255.1 139.305 254.744 139.131C253.17 138.394 253.373 132.492 254.947 131.711C255.15 131.603 255.455 131.733 255.861 131.841Z" fill="#B2AD99"/>
<path d="M38.8395 131.646C35.6406 132.644 33.6095 134.553 33.5079 137.678C33.4064 140.802 35.0312 142.928 38.4333 144.23C34.7266 144.49 31.5784 141.757 31.4768 138.155C31.3753 134.467 34.4219 131.646 38.8395 131.646Z" fill="#B2AD99"/>
<path d="M66.0104 131.863C66.2135 135.985 66.2135 139.978 66.315 144.187C64.6902 144.838 64.0301 144.143 63.9793 142.755C63.9285 139.717 63.8777 136.723 63.9793 133.686C64.025 132.774 63.9793 131.473 66.0104 131.863Z" fill="#B2AD99"/>
</g>
<defs>
<clipPath id="clip0_38_398">
<rect width="294" height="147.97" fill="white" transform="translate(0 0.360962)"/>
</clipPath>
</defs>
</svg>
