<svg width="44" height="37" viewBox="0 0 44 37" fill="none" xmlns="http://www.w3.org/2000/svg">
<g clip-path="url(#clip0_24_49)">
<path d="M14.1711 1.77765C13.5094 0.433514 11.7648 -0.281915 10.0977 0.101092L2.53516 1.83547C1.03984 2.18234 0 3.32414 0 4.62492C0 22.5034 17.2391 36.9999 38.5 36.9999C40.0469 36.9999 41.4047 36.1255 41.8172 34.8681L43.8797 28.5087C44.3352 27.1068 43.4844 25.6398 41.8859 25.0833L33.6359 22.1927C32.2352 21.7013 30.6109 22.0409 29.657 23.031L26.1852 26.5937C20.1352 24.1872 15.2367 20.0681 12.375 14.9806L16.6117 12.0683C17.7891 11.2589 18.193 9.90031 17.6086 8.72238L14.1711 1.78488V1.77765Z" fill="#AA8888"/>
</g>
<defs>
<clipPath id="clip0_24_49">
<rect width="44" height="37" fill="white"/>
</clipPath>
</defs>
</svg>
