<svg width="50" height="50" viewBox="0 0 50 50" fill="none" xmlns="http://www.w3.org/2000/svg">
<rect width="50" height="50" rx="25" fill="white"/>
<path d="M34.2818 15.5313C34.722 15.1122 35.3078 14.8805 35.9156 14.8851C36.5234 14.8897 37.1056 15.1302 37.5395 15.5559C37.9733 15.9816 38.2247 16.5592 38.2408 17.1668C38.2569 17.7744 38.0363 18.3645 37.6256 18.8125L25.1568 34.4063C24.9424 34.6372 24.6836 34.8225 24.396 34.9512C24.1083 35.0798 23.7977 35.1491 23.4826 35.1549C23.1675 35.1608 22.8545 35.103 22.5623 34.9851C22.2701 34.8672 22.0046 34.6916 21.7818 34.4688L13.5131 26.2C13.2828 25.9855 13.0981 25.7267 12.97 25.4392C12.8419 25.1517 12.773 24.8414 12.7675 24.5267C12.7619 24.212 12.8198 23.8994 12.9377 23.6075C13.0555 23.3157 13.231 23.0506 13.4536 22.828C13.6761 22.6055 13.9412 22.43 14.2331 22.3121C14.5249 22.1943 14.8375 22.1364 15.1522 22.1419C15.4669 22.1475 15.7772 22.2164 16.0647 22.3445C16.3522 22.4726 16.611 22.6572 16.8256 22.8875L23.3693 29.4281L34.2224 15.6C34.242 15.576 34.2628 15.553 34.2849 15.5313H34.2818Z" fill="#21B647"/>
</svg>
