<svg width="51" height="50" viewBox="0 0 51 50" fill="none" xmlns="http://www.w3.org/2000/svg">
<rect x="0.5" width="50" height="50" rx="25" fill="white"/>
<path d="M34.7819 15.5313C35.2221 15.1122 35.8079 14.8805 36.4157 14.8851C37.0235 14.8897 37.6057 15.1302 38.0395 15.5559C38.4733 15.9816 38.7248 16.5592 38.7409 17.1668C38.7569 17.7744 38.5363 18.3645 38.1256 18.8125L25.6569 34.4063C25.4425 34.6372 25.1837 34.8225 24.896 34.9512C24.6084 35.0798 24.2977 35.1491 23.9827 35.1549C23.6676 35.1608 23.3546 35.103 23.0624 34.9851C22.7701 34.8672 22.5047 34.6916 22.2819 34.4688L14.0131 26.2C13.7828 25.9855 13.5981 25.7267 13.47 25.4392C13.3419 25.1517 13.2731 24.8414 13.2675 24.5267C13.262 24.212 13.3199 23.8994 13.4377 23.6075C13.5556 23.3157 13.7311 23.0506 13.9536 22.828C14.1762 22.6055 14.4413 22.43 14.7331 22.3121C15.025 22.1943 15.3376 22.1364 15.6522 22.1419C15.9669 22.1475 16.2773 22.2164 16.5648 22.3445C16.8523 22.4726 17.111 22.6572 17.3256 22.8875L23.8694 29.4281L34.7225 15.6C34.742 15.576 34.7629 15.553 34.785 15.5313H34.7819Z" fill="#21B647"/>
</svg>
