<svg width="438" height="414" viewBox="0 0 438 414" fill="none" xmlns="http://www.w3.org/2000/svg">
<g filter="url(#filter0_d_134_3924)">
<path d="M4 53.8782C4 34.2376 4 24.4173 8.42079 17.2032C10.8945 13.1666 14.2884 9.77264 18.325 7.29897C25.5391 2.87817 35.3594 2.87817 55 2.87817H383C402.641 2.87817 412.461 2.87817 419.675 7.29897C423.712 9.77264 427.106 13.1666 429.579 17.2032C434 24.4173 434 34.2376 434 53.8782V294.073C434 308.093 434 315.103 431.338 320.994C429.835 324.318 427.738 327.341 425.151 329.913C420.566 334.471 414.001 336.927 400.87 341.84L236.87 403.193C229.605 405.911 225.973 407.27 222.216 407.675C220.078 407.905 217.922 407.905 215.784 407.675C212.027 407.27 208.395 405.911 201.13 403.193L37.1302 341.84C23.9991 336.927 17.4335 334.471 12.849 329.913C10.2616 327.341 8.16509 324.318 6.66245 320.994C4 315.103 4 308.093 4 294.073V53.8782Z" fill="#48A4E8"/>
</g>
<defs>
<filter id="filter0_d_134_3924" x="0" y="0.878174" width="438" height="412.969" filterUnits="userSpaceOnUse" color-interpolation-filters="sRGB">
<feFlood flood-opacity="0" result="BackgroundImageFix"/>
<feColorMatrix in="SourceAlpha" type="matrix" values="0 0 0 0 0 0 0 0 0 0 0 0 0 0 0 0 0 0 127 0" result="hardAlpha"/>
<feOffset dy="2"/>
<feGaussianBlur stdDeviation="2"/>
<feComposite in2="hardAlpha" operator="out"/>
<feColorMatrix type="matrix" values="0 0 0 0 0 0 0 0 0 0 0 0 0 0 0 0 0 0 0.25 0"/>
<feBlend mode="normal" in2="BackgroundImageFix" result="effect1_dropShadow_134_3924"/>
<feBlend mode="normal" in="SourceGraphic" in2="effect1_dropShadow_134_3924" result="shape"/>
</filter>
</defs>
</svg>
