<svg width="64" height="48" viewBox="0 0 64 48" fill="none" xmlns="http://www.w3.org/2000/svg">
<path d="M0 4C0 1.7875 2.04286 0 4.57143 0H59.4286C61.9571 0 64 1.7875 64 4C64 6.2125 61.9571 8 59.4286 8H4.57143C2.04286 8 0 6.2125 0 4ZM0 24C0 21.7875 2.04286 20 4.57143 20H59.4286C61.9571 20 64 21.7875 64 24C64 26.2125 61.9571 28 59.4286 28H4.57143C2.04286 28 0 26.2125 0 24ZM64 44C64 46.2125 61.9571 48 59.4286 48H4.57143C2.04286 48 0 46.2125 0 44C0 41.7875 2.04286 40 4.57143 40H59.4286C61.9571 40 64 41.7875 64 44Z" fill="white"/>
</svg>
