<svg width="66" height="51" viewBox="0 0 66 51" fill="none" xmlns="http://www.w3.org/2000/svg">
<path d="M8.625 6.88C7.50781 6.88 6.59375 7.8175 6.59375 8.96334V11.8409L28.4932 30.2784C31.1211 32.492 34.8916 32.492 37.5195 30.2784L59.4062 11.8409V8.96334C59.4062 7.8175 58.4922 6.88 57.375 6.88H8.625ZM6.59375 19.9269V42.2967C6.59375 43.4425 7.50781 44.38 8.625 44.38H57.375C58.4922 44.38 59.4062 43.4425 59.4062 42.2967V19.9269L41.3789 35.1092C36.5039 39.2107 29.4834 39.2107 24.6211 35.1092L6.59375 19.9269ZM0.5 8.96334C0.5 4.36698 4.14355 0.630005 8.625 0.630005H57.375C61.8564 0.630005 65.5 4.36698 65.5 8.96334V42.2967C65.5 46.893 61.8564 50.63 57.375 50.63H8.625C4.14355 50.63 0.5 46.893 0.5 42.2967V8.96334Z" fill="#3D405B"/>
</svg>
