<svg width="48" height="48" viewBox="0 0 48 48" fill="none" xmlns="http://www.w3.org/2000/svg">
<path d="M47.121 26.4214C48.293 25.0821 48.293 22.9071 47.121 21.5679L35.1205 7.85357C33.9485 6.51429 32.0453 6.51429 30.8734 7.85357C29.7014 9.19286 29.7014 11.3679 30.8734 12.7071L37.755 20.5714H18.0009C16.3414 20.5714 15.0007 22.1036 15.0007 24C15.0007 25.8964 16.3414 27.4286 18.0009 27.4286H37.755L30.8734 35.2929C29.7014 36.6321 29.7014 38.8071 30.8734 40.1464C32.0453 41.4857 33.9485 41.4857 35.1205 40.1464L47.121 26.4321V26.4214ZM15.0007 6.85714C16.6602 6.85714 18.0009 5.325 18.0009 3.42857C18.0009 1.53214 16.6602 0 15.0007 0H9.00044C4.03145 0 0 4.60714 0 10.2857V37.7143C0 43.3929 4.03145 48 9.00044 48H15.0007C16.6602 48 18.0009 46.4679 18.0009 44.5714C18.0009 42.675 16.6602 41.1429 15.0007 41.1429H9.00044C7.34098 41.1429 6.00029 39.6107 6.00029 37.7143V10.2857C6.00029 8.38929 7.34098 6.85714 9.00044 6.85714H15.0007Z" fill="black"/>
</svg>
