<svg width="66" height="56" viewBox="0 0 66 56" fill="none" xmlns="http://www.w3.org/2000/svg">
<path d="M21.4346 3.27256C20.457 1.27452 17.8799 0.21104 15.417 0.780376L4.24512 3.3585C2.03613 3.87413 0.5 5.57139 0.5 7.50499C0.5 34.0812 25.9668 55.63 57.375 55.63C59.6602 55.63 61.666 54.3302 62.2754 52.461L65.3223 43.0079C65.9951 40.9239 64.7383 38.7433 62.377 37.9161L50.1895 33.6192C48.1201 32.8888 45.7207 33.3937 44.3115 34.8653L39.1826 40.1612C30.2451 36.5841 23.0088 30.461 18.7813 22.8985L25.04 18.5694C26.7793 17.3663 27.376 15.3468 26.5127 13.5958L21.4346 3.28331V3.27256Z" fill="#3D405B"/>
</svg>
