<svg width="66" height="56" viewBox="0 0 66 56" fill="none" xmlns="http://www.w3.org/2000/svg">
<path d="M21.4346 3.39451C20.457 1.39647 17.8799 0.332989 15.417 0.902324L4.24512 3.48045C2.03613 3.99607 0.5 5.69334 0.5 7.62693C0.5 34.2031 25.9668 55.7519 57.375 55.7519C59.6602 55.7519 61.666 54.4521 62.2754 52.583L65.3223 43.1299C65.9951 41.0459 64.7383 38.8652 62.377 38.0381L50.1895 33.7412C48.1201 33.0107 45.7207 33.5156 44.3115 34.9873L39.1826 40.2832C30.2451 36.706 23.0088 30.583 18.7813 23.0205L25.04 18.6914C26.7793 17.4883 27.376 15.4687 26.5127 13.7178L21.4346 3.40525V3.39451Z" fill="#3D405B"/>
</svg>
