<svg width="48" height="48" viewBox="0 0 48 48" fill="none" xmlns="http://www.w3.org/2000/svg">
<path d="M33 30C41.2875 30 48 23.2875 48 15C48 13.5656 47.7937 12.1781 47.4187 10.8563C47.1281 9.84375 45.8813 9.61875 45.1406 10.3594L37.9406 17.5594C37.6594 17.8406 37.275 18 36.8812 18H31.5C30.675 18 30 17.325 30 16.5V11.1187C30 10.725 30.1594 10.3406 30.4406 10.0594L37.6406 2.85938C38.3813 2.11875 38.1469 0.871875 37.1438 0.58125C35.8219 0.20625 34.4344 0 33 0C24.7125 0 18 6.7125 18 15C18 16.7906 18.3188 18.5156 18.8906 20.1094L1.86562 37.1344C0.675 38.325 0 39.9469 0 41.6344C0 45.15 2.85 48 6.36563 48C8.05313 48 9.675 47.325 10.8656 46.1344L27.8906 29.1094C29.4844 29.6906 31.2094 30 33 30ZM7.5 38.25C8.09674 38.25 8.66903 38.4871 9.09099 38.909C9.51295 39.331 9.75 39.9033 9.75 40.5C9.75 41.0967 9.51295 41.669 9.09099 42.091C8.66903 42.5129 8.09674 42.75 7.5 42.75C6.90326 42.75 6.33097 42.5129 5.90901 42.091C5.48705 41.669 5.25 41.0967 5.25 40.5C5.25 39.9033 5.48705 39.331 5.90901 38.909C6.33097 38.4871 6.90326 38.25 7.5 38.25Z" fill="black"/>
</svg>
