<svg width="66" height="51" viewBox="0 0 66 51" fill="none" xmlns="http://www.w3.org/2000/svg">
<path d="M8.625 7.00171C7.50781 7.00171 6.59375 7.93921 6.59375 9.08504V11.9626L28.4932 30.4001C31.1211 32.6137 34.8916 32.6137 37.5195 30.4001L59.4062 11.9626V9.08504C59.4062 7.93921 58.4922 7.00171 57.375 7.00171H8.625ZM6.59375 20.0486V42.4184C6.59375 43.5642 7.50781 44.5017 8.625 44.5017H57.375C58.4922 44.5017 59.4062 43.5642 59.4062 42.4184V20.0486L41.3789 35.2309C36.5039 39.3324 29.4834 39.3324 24.6211 35.2309L6.59375 20.0486ZM0.5 9.08504C0.5 4.48869 4.14355 0.751709 8.625 0.751709H57.375C61.8564 0.751709 65.5 4.48869 65.5 9.08504V42.4184C65.5 47.0147 61.8564 50.7517 57.375 50.7517H8.625C4.14355 50.7517 0.5 47.0147 0.5 42.4184V9.08504Z" fill="#3D405B"/>
</svg>
